<?xml version="1.0" standalone="no"?>
<!DOCTYPE svg PUBLIC "-//W3C//DTD SVG 1.1//EN" "http://www.w3.org/Graphics/SVG/1.1/DTD/svg11.dtd" >
<svg xmlns="http://www.w3.org/2000/svg" xmlns:xlink="http://www.w3.org/1999/xlink" version="1.1">
<metadata>
Created by FontForge 20160407 at Sun May 29 20:26:35 2016
 By Jimmy Wärting
Copyright (C) 1993; Type Market Ltd. Moscow, 119136, Box 20; phone:(095)1427712; Created by A.Kustov
</metadata>
<defs>
<font id="HeliosLight" horiz-adv-x="2277" >
  <font-face 
    font-family="HeliosLight"
    font-weight="400"
    font-stretch="normal"
    units-per-em="4096"
    panose-1="2 11 114 0 0 0 0 0 0 0"
    ascent="3276"
    descent="-820"
    x-height="2122"
    cap-height="2949"
    bbox="-188 -868 4198 3805"
    underline-thickness="58"
    underline-position="-119"
    unicode-range="U+0020-2122"
  />
<missing-glyph horiz-adv-x="3072" 
d="M512 0v2560h2048v-2560h-2048zM2494 66v2428h-1916v-2428h1916z" />
    <glyph glyph-name=".notdef" horiz-adv-x="3072" 
d="M512 0v2560h2048v-2560h-2048zM2494 66v2428h-1916v-2428h1916z" />
    <glyph glyph-name=".null" horiz-adv-x="0" 
 />
    <glyph glyph-name="nonmarkingreturn" horiz-adv-x="0" 
 />
    <glyph glyph-name="space" unicode=" " horiz-adv-x="1139" 
 />
    <glyph glyph-name="exclam" unicode="!" horiz-adv-x="1364" 
d="M590 741l-58 1291v917h299v-917l-57 -1291h-184zM831 0h-299v360h299v-360z" />
    <glyph glyph-name="quotedbl" unicode="&#x22;" horiz-adv-x="1139" 
d="M233 2023v926h213v-926h-213zM688 2023v926h213v-926h-213z" />
    <glyph glyph-name="numbersign" unicode="#" 
d="M2064 1176v-242h-454l-131 -934h-242l127 934h-561l-139 -934h-242l139 934h-450v242h487l86 573h-459v242h492l131 868h246l-131 -868h557l127 868h241l-127 -868h410v-242h-442l-82 -573h417zM1487 1749h-557l-90 -573h565z" />
    <glyph glyph-name="dollar" unicode="$" 
d="M1044 1614v1052q-152 0 -278.5 -65t-200 -182.5t-73.5 -264.5q0 -171 70 -273.5t183.5 -158t298.5 -108.5zM1237 1319v-1176q166 0 310.5 76.5t228.5 213.5t84 304q0 193 -79 307.5t-208.5 172.5t-335.5 102zM1237 -78v-311h-193v311q-351 20 -575.5 198t-296.5 511
q-8 69 -8 200h254q0 -183 79.5 -337t223 -247.5t323.5 -103.5v1217q-199 50 -336 104t-247 141t-171 219.5t-61 317.5q0 220 109.5 391t295.5 263t410 92v250h193v-250q348 0 567.5 -190.5t231.5 -530.5h-267q0 223 -152.5 361t-379.5 138v-1089q308 -73 492.5 -160
t288.5 -258.5t104 -466.5q0 -228 -128 -404.5t-333.5 -271t-423.5 -94.5z" />
    <glyph glyph-name="percent" unicode="%" horiz-adv-x="3641" 
d="M2695 1356q182 0 336.5 -92t243 -248t88.5 -336q0 -183 -88.5 -340t-242 -248.5t-337.5 -91.5q-182 0 -339 92t-249 249t-92 339q0 181 92.5 336.5t250 247.5t337.5 92zM2691 1122q-183 0 -312.5 -132t-129.5 -318q0 -176 133 -307.5t309 -131.5q179 0 308.5 133.5
t129.5 313.5q0 116 -60 218.5t-160.5 163t-217.5 60.5zM1630 2179q0 -182 -91.5 -338t-248 -247t-340.5 -91q-183 0 -339 92t-246.5 248.5t-90.5 335.5q0 180 91 337t246 250t339 93q182 0 339 -92t249 -249t92 -339zM950 1737q115 0 219 61t166 162.5t62 218.5
q0 116 -61 219.5t-164 165.5t-222 62q-118 0 -220 -61t-162 -163.5t-60 -222.5q0 -117 61 -220t163 -162.5t218 -59.5zM2736 2888l-1626 -2945h-213l1626 2945h213z" />
    <glyph glyph-name="ampersand" unicode="&#x26;" horiz-adv-x="2732" 
d="M1860 537l-840 999q-160 -74 -293 -193.5t-207 -265t-74 -299.5q0 -286 188.5 -460.5t475.5 -174.5q418 0 750 394zM1200 2728q-161 0 -277 -97t-116 -255q0 -185 307 -553q158 97 242 158t152.5 158t68.5 220q0 148 -102.5 258.5t-274.5 110.5zM1257 1638l742 -876
q123 207 123 573h241q-22 -485 -204 -770l479 -565h-332l-287 348q-189 -228 -410 -327t-519 -99q-256 0 -466.5 109.5t-333 310t-122.5 457.5q0 309 195.5 537.5t508.5 375.5q-145 169 -230 327t-85 333q0 181 88.5 311t241.5 198t334 68q179 0 319.5 -76.5t219.5 -207
t79 -285.5q0 -185 -76.5 -316t-193 -220t-312.5 -206z" />
    <glyph glyph-name="quotesingle" unicode="'" horiz-adv-x="909" 
d="M348 2023v926h213v-926h-213z" />
    <glyph glyph-name="parenleft" unicode="(" horiz-adv-x="1364" 
d="M926 3027h209q-147 -214 -262.5 -441.5t-197.5 -472t-124.5 -497t-42.5 -506.5q0 -246 44.5 -496.5t126 -487t198 -466t258.5 -442.5h-209q-189 264 -310.5 470.5t-210.5 432.5t-134.5 476t-45.5 533q0 277 47 525.5t135 476t215 443.5t304 452z" />
    <glyph glyph-name="parenright" unicode=")" horiz-adv-x="1364" 
d="M438 -782h-209q200 291 338.5 600.5t213.5 642.5t75 674q0 494 -166.5 975t-460.5 917h209q241 -332 392.5 -619t230 -603.5t78.5 -690.5q0 -276 -46 -524t-135.5 -476.5t-218.5 -447t-301 -448.5z" />
    <glyph glyph-name="asterisk" unicode="*" horiz-adv-x="1593" 
d="M254 2646l455 -176v479h172v-479l467 172l61 -180l-467 -152l307 -434l-159 -98l-304 442l-319 -434l-143 110l315 414l-459 164z" />
    <glyph glyph-name="plus" unicode="+" horiz-adv-x="2703" 
d="M1229 1147v901h246v-901h901v-246h-901v-901h-246v901h-901v246h901z" />
    <glyph glyph-name="comma" unicode="," horiz-adv-x="1139" 
d="M717 360v-483q0 -171 -81.5 -283t-217.5 -155v151q139 88 139 271v139h-139v360h299z" />
    <glyph glyph-name="minus" unicode="-" horiz-adv-x="2703" 
d="M328 901v246h2048v-246h-2048z" />
    <glyph glyph-name="period" unicode="." horiz-adv-x="1139" 
d="M717 0h-299v360h299v-360z" />
    <glyph glyph-name="slash" unicode="/" horiz-adv-x="1139" 
d="M1180 3027l-963 -3396h-229l962 3396h230z" />
    <glyph glyph-name="zero" unicode="0" 
d="M1851 1421q0 357 -57 629.5t-217 444t-447 171.5q-269 0 -427 -176t-219.5 -459t-61.5 -638q0 -391 66 -661.5t225.5 -419t425.5 -148.5q288 0 447 181t212 456.5t53 619.5zM1139 2888q305 0 502 -131.5t298 -346t138 -467.5t37 -550q0 -424 -83.5 -744t-299.5 -513
t-592 -193q-286 0 -480 113.5t-303 317t-152.5 462.5t-43.5 585q0 308 40 561.5t145 459.5t300.5 326t493.5 120z" />
    <glyph glyph-name="one" unicode="1" 
d="M1237 0v2146h-745v172q202 15 320 36t216.5 77.5t165 167.5t96.5 289h209v-2888h-262z" />
    <glyph glyph-name="two" unicode="2" 
d="M561 1942h-278q0 280 115.5 495.5t329.5 333t493 117.5q282 0 482.5 -105t303 -288t102.5 -406q0 -266 -123 -458t-294.5 -314t-448.5 -274.5t-391 -239.5q-172 -132 -270.5 -264t-106.5 -318h1610v-221h-1888q3 230 50 393.5t175 311.5q194 224 485 411t484 305.5
t312.5 268t119.5 383.5q0 181 -83.5 316.5t-228 206t-323.5 70.5q-182 0 -326 -98.5t-222.5 -266t-78.5 -359.5z" />
    <glyph glyph-name="three" unicode="3" 
d="M905 1393v213q264 0 445 48.5t282 170.5t101 334q0 253 -173.5 380t-441.5 127q-181 0 -322 -79.5t-218.5 -220.5t-77.5 -318h-262q0 386 278 647q212 193 655 193q235 0 421 -79.5t294.5 -240.5t108.5 -393q0 -468 -410 -643q512 -160 512 -713q0 -239 -110.5 -440
t-321 -318.5t-498.5 -117.5q-254 0 -436 46t-305.5 149.5t-193 273t-93.5 424.5h262q0 -321 195 -496.5t522 -175.5q204 0 367.5 89t256.5 239.5t93 322.5q0 325 -249 451.5t-681 126.5z" />
    <glyph glyph-name="four" unicode="4" 
d="M1466 0v713h-1319v225l1344 1921h238v-1925h401v-221h-401v-713h-263zM1466 2466l-1060 -1532h1060v1532z" />
    <glyph glyph-name="five" unicode="5" 
d="M143 750h263q40 -285 230.5 -435.5t481.5 -150.5q209 0 366.5 97.5t241.5 266.5t84 373q0 161 -50 296t-144 232.5t-227.5 151t-294.5 53.5q-398 0 -627 -299l-217 29l233 1495h1434v-221h-1212l-181 -971q167 110 302 149t333 39q200 0 366 -64.5t289 -188.5t191 -303
t68 -398q0 -291 -126 -509t-337 -333.5t-451 -115.5q-955 0 -1016 807z" />
    <glyph glyph-name="six" unicode="6" 
d="M2060 2179h-270q-43 226 -183 356.5t-366 130.5q-252 0 -409.5 -119t-238.5 -312t-110 -384.5t-53 -490.5q163 221 320 335.5t438 114.5q287 0 494 -112t315 -321.5t108 -495.5q0 -291 -109.5 -502t-318 -323.5t-497.5 -112.5q-467 0 -739.5 328t-272.5 1052
q0 281 48.5 553.5t167 503t325.5 369.5t508 139q350 0 577.5 -185t265.5 -524zM1180 1589q-295 0 -473.5 -208t-178.5 -509q0 -279 164.5 -493.5t491.5 -214.5q337 0 498 213.5t161 511.5q0 700 -663 700z" />
    <glyph glyph-name="seven" unicode="7" 
d="M242 2597v262h1839v-246q-295 -332 -513.5 -697.5t-360 -723t-212.5 -656.5t-86 -536h-286q22 303 123 651.5t259.5 698t354.5 670t405 577.5h-1523z" />
    <glyph glyph-name="eight" unicode="8" 
d="M1143 1413q-207 0 -364 -66.5t-247 -206t-90 -345.5q0 -177 88.5 -322t251.5 -227t377 -82q190 0 344.5 82.5t243 230.5t88.5 334q0 195 -90.5 331.5t-248.5 203.5t-353 67zM1130 2666q-253 0 -419 -137.5t-166 -382.5q0 -252 177 -382t437 -130q253 0 405 139t152 431
q0 223 -146 342.5t-440 119.5zM684 1552q-160 103 -239.5 177t-120.5 180.5t-41 273.5q0 195 112 356.5t301.5 255t409.5 93.5q231 0 430 -75.5t320.5 -234t121.5 -395.5q0 -454 -393 -647q158 -57 273.5 -162t177 -248.5t61.5 -306.5q0 -417 -273.5 -646.5t-742.5 -229.5
q-215 0 -425 98.5t-343 292t-133 461.5q0 263 131.5 463.5t372.5 293.5z" />
    <glyph glyph-name="nine" unicode="9" 
d="M217 635h266q95 -471 561 -471q242 0 399.5 118.5t241.5 308t117.5 399.5t44.5 456l-8 8q-272 -450 -778 -450q-265 0 -469 115t-314 327t-110 487q0 206 58 381t173 303.5t291 199.5t408 71q1011 0 1011 -1458q0 -474 -133.5 -811t-371.5 -506.5t-547 -169.5
q-353 0 -580 175.5t-260 516.5zM1098 2666q-214 0 -365 -90t-227 -256.5t-76 -394.5q0 -329 176.5 -514.5t491.5 -185.5q198 0 345 96t224.5 260t77.5 361q0 326 -173 525t-474 199z" />
    <glyph glyph-name="colon" unicode=":" horiz-adv-x="1139" 
d="M717 0h-299v360h299v-360zM717 1655h-299v360h299v-360z" />
    <glyph glyph-name="semicolon" unicode=";" horiz-adv-x="1139" 
d="M717 360v-483q0 -171 -81.5 -283t-217.5 -155v151q139 88 139 271v139h-139v360h299zM717 1655h-299v360h299v-360z" />
    <glyph glyph-name="less" unicode="&#x3c;" horiz-adv-x="2703" 
d="M651 1044l1725 -806v-263l-2048 963v217l2048 913v-262z" />
    <glyph glyph-name="equal" unicode="=" horiz-adv-x="2703" 
d="M2376 1548v-245h-2048v245h2048zM2376 754v-246h-2048v246h2048z" />
    <glyph glyph-name="greater" unicode="&#x3e;" horiz-adv-x="2703" 
d="M2376 1155v-217l-2048 -963v263l1724 806l-1724 762v262z" />
    <glyph glyph-name="question" unicode="?" horiz-adv-x="2048" 
d="M1159 745h-237q0 183 13 303t63 237t149 222q12 13 207 201.5t274.5 310t79.5 258.5q0 148 -76 269t-221 190.5t-342 69.5q-194 0 -337 -90t-216.5 -247t-73.5 -355h-249q0 268 110.5 476.5t312 322.5t461.5 114q274 0 476.5 -95.5t309.5 -270t107 -404.5
q0 -211 -103.5 -357.5t-318.5 -344.5t-303 -322q-86 -122 -86 -488zM1196 0h-299v360h299v-360z" />
    <glyph glyph-name="at" unicode="@" horiz-adv-x="3277" 
d="M2802 684h241q-127 -233 -336.5 -406t-467.5 -264.5t-523 -91.5q-429 0 -785.5 209.5t-561.5 570.5t-205 785q0 416 209.5 771t564.5 562t762 207q388 0 712.5 -167.5t512.5 -464t188 -662.5q0 -309 -144.5 -587t-368 -443.5t-441.5 -165.5q-119 0 -218.5 54.5
t-134.5 158.5q-92 -95 -225.5 -150t-261.5 -55q-170 0 -300 82t-199.5 222.5t-69.5 309.5q0 280 131 571t363.5 480.5t520.5 189.5q151 0 274.5 -70t184.5 -200l62 188h274q-250 -748 -303.5 -910.5t-95 -294.5t-53 -177.5t-11.5 -71.5q0 -114 119 -114q162 0 313.5 155
t244.5 389t93 451q0 243 -91 444t-252.5 342.5t-371 216t-444.5 74.5q-278 0 -517 -106t-414.5 -295.5t-271 -438.5t-95.5 -524q0 -363 172.5 -670t472.5 -484t661 -177q320 0 612 148.5t474 408.5zM1380 803q173 1 329.5 180.5t251.5 431.5t95 445q0 123 -79 211t-203 88
q-154 0 -287 -95t-228.5 -249t-146.5 -324.5t-51 -310.5q0 -157 85 -267t234 -110z" />
    <glyph glyph-name="A" unicode="A" horiz-adv-x="2732" 
d="M348 0h-287l1160 2949h315l1130 -2949h-286l-340 926h-1344zM1368 2712l-577 -1549h1155z" />
    <glyph glyph-name="B" unicode="B" horiz-adv-x="2732" 
d="M610 1409v-1171h709q252 0 414 22t270.5 84.5t162.5 180t54 306.5q0 342 -214.5 460t-653.5 118h-742zM610 2712v-1065h705q286 0 454.5 64t242 188.5t73.5 308.5q0 187 -81 296t-262.5 158.5t-488.5 49.5h-643zM1536 0h-1204v2949h1065q334 0 550.5 -91t316 -256.5
t99.5 -393.5q0 -285 -135 -442t-336 -193v-8q298 -46 452.5 -240t154.5 -494q0 -831 -963 -831z" />
    <glyph glyph-name="C" unicode="C" horiz-adv-x="2957" 
d="M2712 2093h-287q-83 368 -312 532t-618 164q-259 0 -453.5 -102.5t-320 -283t-186 -416t-60.5 -504.5q0 -358 99.5 -656.5t333.5 -482.5t612 -184q246 0 437.5 103.5t315 285t181.5 422.5h290q-69 -301 -222 -537.5t-417 -374t-639 -137.5q-644 0 -956.5 436t-312.5 1117
q0 542 175 889t482 505t715 158q302 0 544.5 -107t396.5 -316t202 -511z" />
    <glyph glyph-name="D" unicode="D" horiz-adv-x="2957" 
d="M1339 0h-1007v2949h1007q298 0 511 -42t399 -179q264 -191 377.5 -539t113.5 -710q0 -327 -83.5 -619.5t-272.5 -499.5q-185 -207 -444.5 -283.5t-600.5 -76.5zM610 2712v-2474h668q218 0 377.5 26.5t314.5 108.5q186 94 295 273t153 393.5t44 439.5q0 850 -508 1122
q-208 111 -676 111h-668z" />
    <glyph glyph-name="E" unicode="E" horiz-adv-x="2503" 
d="M2335 0h-2003v2949h1962v-237h-1684v-1065h1520v-238h-1520v-1171h1725v-238z" />
    <glyph glyph-name="F" unicode="F" 
d="M582 0h-279v2949h1901v-237h-1622v-1065h1474v-238h-1474v-1409z" />
    <glyph glyph-name="G" unicode="G" horiz-adv-x="3187" 
d="M2580 1286h-995v238h1262v-1524h-238v504q-79 -136 -180.5 -243t-234 -182.5t-305 -116t-382.5 -40.5q-379 0 -670.5 176t-455.5 530t-164 863q0 329 84.5 609t254 488.5t427.5 323.5t598 115q315 0 570.5 -103t428.5 -314t234 -517h-287q-49 216 -183 373.5t-328 240
t-414 82.5q-377 0 -625 -174.5t-364.5 -490t-116.5 -744.5q0 -329 128.5 -609t372 -445.5t568.5 -165.5q268 0 511.5 126t377.5 390q126 247 126 610z" />
    <glyph glyph-name="H" unicode="H" horiz-adv-x="2957" 
d="M606 0h-278v2949h278v-1266h1745v1266h279v-2949h-279v1446h-1745v-1446z" />
    <glyph glyph-name="I" unicode="I" horiz-adv-x="1139" 
d="M709 0h-279v2949h279v-2949z" />
    <glyph glyph-name="J" unicode="J" horiz-adv-x="2048" 
d="M90 934h279q0 -234 29.5 -390.5t145.5 -262t357 -105.5q278 0 399 159t121 480v2134h279v-2142q0 -885 -832 -885q-453 0 -615.5 273t-162.5 739z" />
    <glyph glyph-name="K" unicode="K" horiz-adv-x="2732" 
d="M627 0h-279v2949h279v-1487l1462 1487h365l-1164 -1175l1368 -1774h-340l-1228 1602l-463 -463v-1139z" />
    <glyph glyph-name="L" unicode="L" 
d="M2191 0h-1859v2949h278v-2711h1581v-238z" />
    <glyph glyph-name="M" unicode="M" horiz-adv-x="3412" 
d="M598 0h-279v2949h426l967 -2601h8l951 2601h421v-2949h-278v2630h-8l-967 -2630h-262l-971 2630h-8v-2630z" />
    <glyph glyph-name="N" unicode="N" horiz-adv-x="2957" 
d="M2306 0l-1696 2572h-8v-2572h-278v2949h315l1704 -2576h8v2576h279v-2949h-324z" />
    <glyph glyph-name="O" unicode="O" horiz-adv-x="3187" 
d="M221 1470q0 324 90 607.5t263.5 496.5t429.5 333t577 120q339 0 600.5 -118.5t436 -330.5t263.5 -495t89 -613q0 -321 -88 -601.5t-262.5 -494t-435 -333t-591.5 -119.5q-330 0 -589.5 119.5t-434 334t-261.5 493.5t-87 601zM1597 160q278 0 486.5 104t343 287t199.5 417
t65 502q0 306 -76 551.5t-220 417t-348 261t-458 89.5q-273 0 -481.5 -106t-342.5 -291t-199.5 -422t-65.5 -500q0 -361 117 -658.5t365.5 -474.5t614.5 -177z" />
    <glyph glyph-name="P" unicode="P" horiz-adv-x="2503" 
d="M319 2949v-2949h279v1303h696q1065 0 1065 823t-983 823h-1057zM598 1540v1172h582q333 0 522.5 -44t284 -172.5t94.5 -377.5q0 -233 -103 -360t-290.5 -172.5t-475.5 -45.5h-614z" />
    <glyph glyph-name="Q" unicode="Q" horiz-adv-x="3187" 
d="M2503 279l393 -304l-156 -188l-434 336q-318 -201 -737 -201q-332 0 -590.5 119.5t-433 334t-261.5 493.5t-87 601q0 313 85 594t255.5 498t428.5 341t590 124q414 0 728.5 -181t487.5 -533t173 -843q0 -362 -112.5 -671.5t-329.5 -519.5zM1901 741l397 -303
q182 173 275 443t93 589q0 426 -141 724t-390.5 446.5t-569.5 148.5q-274 0 -482 -106.5t-342.5 -291.5t-200 -422t-65.5 -499q0 -266 65 -504t200 -419t344.5 -284t488.5 -103q294 0 516 131l-336 258z" />
    <glyph glyph-name="R" unicode="R" horiz-adv-x="2732" 
d="M606 1577h869q331 0 532 145.5t201 440.5q0 549 -717 549h-885v-1135zM1483 1339h-877v-1339h-278v2949h1155q1003 0 1003 -774q0 -277 -110.5 -441.5t-368.5 -279.5q231 -78 300 -279.5t77 -519.5q9 -321 36.5 -450.5t86.5 -175.5v-29h-307q-49 87 -68 239.5
t-33.5 406.5t-30.5 333q-44 219 -190.5 289.5t-394.5 70.5z" />
    <glyph glyph-name="S" unicode="S" horiz-adv-x="2503" 
d="M176 881h270q33 -376 259.5 -548.5t588.5 -172.5q251 0 420.5 82.5t249.5 220.5t80 307q0 303 -211 415t-667 221.5t-688 275.5t-232 554q0 211 115 392t342.5 290t541.5 109q242 0 429 -67t311.5 -188t187.5 -280t63 -346h-266q0 215 -99 360t-264 214t-362 69
q-241 0 -406 -80t-244 -209t-79 -276q0 -292 207 -395.5t668.5 -208t696 -272.5t234.5 -566q0 -267 -127.5 -461.5t-370.5 -296.5t-579 -102q-312 0 -553.5 108t-378.5 324.5t-137 526.5z" />
    <glyph glyph-name="T" unicode="T" 
d="M66 2712v237h2146v-237h-934v-2712h-279v2712h-933z" />
    <glyph glyph-name="U" unicode="U" horiz-adv-x="2957" 
d="M336 1110v1839h278v-1757q0 -271 50.5 -466.5t156.5 -321t268 -185t390 -59.5q314 0 504 111.5t275 338.5t85 582v1757h278v-1839q0 -383 -126.5 -649t-383 -402.5t-632.5 -136.5q-379 0 -635 138t-382 405t-126 645z" />
    <glyph glyph-name="V" unicode="V" horiz-adv-x="2503" 
d="M1098 0l-1024 2949h291l888 -2621l885 2621h291l-1024 -2949h-307z" />
    <glyph glyph-name="W" unicode="W" horiz-adv-x="3641" 
d="M1974 2949l672 -2556h8l643 2556h287l-774 -2949h-307l-684 2605h-9l-684 -2605h-307l-762 2949h279l635 -2556h8l684 2556h311z" />
    <glyph glyph-name="X" unicode="X" horiz-adv-x="2503" 
d="M2105 0l-860 1303l-856 -1303h-315l1016 1516l-975 1433h323l807 -1241l811 1241h324l-967 -1433l1012 -1516h-320z" />
    <glyph glyph-name="Y" unicode="Y" horiz-adv-x="2503" 
d="M369 2949l868 -1421l889 1421h323l-1069 -1663v-1286h-278v1266l-1053 1683h320z" />
    <glyph glyph-name="Z" unicode="Z" horiz-adv-x="2503" 
d="M2372 0h-2245v233l1888 2479h-1728v237h2072v-233l-1888 -2478h1901v-238z" />
    <glyph glyph-name="bracketleft" unicode="[" horiz-adv-x="1364" 
d="M1147 -782h-774v3809h782v-205h-520v-3400h512v-204z" />
    <glyph glyph-name="backslash" unicode="\" horiz-adv-x="1139" 
d="M1081 0l-1269 3027h245l1270 -3027h-246z" />
    <glyph glyph-name="bracketright" unicode="]" horiz-adv-x="1364" 
d="M991 3027v-3809h-782v204h520v3400h-512v205h774z" />
    <glyph glyph-name="asciicircum" unicode="^" horiz-adv-x="2703" 
d="M537 1004h-238l942 1855h213l946 -1855h-233l-824 1605z" />
    <glyph glyph-name="underscore" unicode="_" horiz-adv-x="2048" 
d="M2048 -487h-2048v237h2048v-237z" />
    <glyph glyph-name="grave" unicode="`" horiz-adv-x="1364" 
d="M750 2351l-566 569h320l454 -569h-208z" />
    <glyph glyph-name="a" unicode="a" 
d="M1683 782v332q-205 -85 -634 -119q-598 -45 -598 -450q0 -183 134.5 -282t323.5 -99q321 0 547.5 158t226.5 460zM930 1192l340 45q209 19 323 70q90 40 90 221q0 200 -127.5 315t-400.5 115t-429 -108t-189 -371h-250q17 239 135 397t307.5 230.5t429.5 72.5
q352 0 561 -156.5t209 -502.5v-1155q0 -105 24 -151t87 -46q51 0 147 33v-193q-126 -41 -192 -41q-58 0 -111 13q-111 16 -151.5 98.5t-44.5 216.5q-315 -352 -791 -352q-300 0 -504.5 159t-204.5 451q0 540 742 639z" />
    <glyph glyph-name="b" unicode="b" horiz-adv-x="2503" 
d="M569 1069q0 -258 84 -464t246 -323.5t387 -117.5q209 0 373.5 98.5t258 287t93.5 445.5q0 211 -43 384.5t-131.5 304t-226 202.5t-324.5 72q-216 0 -379.5 -120.5t-250.5 -325t-87 -443.5zM569 373v-373h-245v2949h245v-1167q75 124 196.5 215t265.5 136.5t296 45.5
q235 0 414 -88t297.5 -244t176.5 -359.5t58 -430.5q0 -326 -99.5 -576.5t-315.5 -394t-543 -143.5q-214 0 -423.5 114.5t-313.5 315.5h-9z" />
    <glyph glyph-name="c" unicode="c" 
d="M2048 1454h-250q-65 241 -226.5 372.5t-404.5 131.5q-237 0 -398.5 -128t-237.5 -334t-76 -439q0 -373 178 -633t534 -260q270 0 439 151t213 418h262q-67 -368 -297.5 -579t-616.5 -211q-245 0 -431 84t-306 235t-178.5 354.5t-58.5 440.5q0 226 64 428t188 358.5
t307.5 246t414.5 89.5q244 0 429.5 -79t300 -240.5t151.5 -405.5z" />
    <glyph glyph-name="d" unicode="d" horiz-adv-x="2503" 
d="M1933 1069q0 239 -87.5 444t-250 325t-378.5 120q-243 0 -407 -124.5t-241 -342.5t-77 -496q0 -260 93.5 -448t258.5 -285.5t373 -97.5q225 0 386.5 117t245.5 323.5t84 464.5zM1933 1782v1167h246v-2949h-246v373h-8q-102 -200 -312.5 -315t-424.5 -115
q-327 0 -543 143.5t-316 394t-100 576.5q0 226 58 428.5t176.5 360t298 245.5t414.5 88q151 0 295.5 -45.5t266 -136.5t195.5 -215z" />
    <glyph glyph-name="e" unicode="e" 
d="M446 1208h1385q0 210 -77 381t-228.5 270t-366.5 99q-209 0 -360.5 -100.5t-238.5 -270t-114 -379.5zM2093 1004h-1647q0 -230 82 -423t242.5 -305t388.5 -112q244 0 417 128.5t226 358.5h275q-217 -708 -918 -708q-328 0 -547.5 143.5t-323.5 395t-104 571.5
q0 231 67 436.5t195 361t310 242t403 86.5t393 -75.5t293 -225t184.5 -369.5t63.5 -505z" />
    <glyph glyph-name="f" unicode="f" horiz-adv-x="1139" 
d="M397 1917h-315v205h315v336q0 548 451 548q117 0 205 -16v-225q-82 20 -148 20q-169 0 -215.5 -104.5t-46.5 -296.5v-262h410v-205h-410v-1917h-246v1917z" />
    <glyph glyph-name="g" unicode="g" horiz-adv-x="2503" 
d="M1933 1053q0 258 -84 464.5t-245.5 323.5t-386.5 117q-209 0 -373.5 -98t-258 -286.5t-93.5 -447.5q0 -428 181.5 -695t543.5 -267q216 0 378.5 119.5t250 324t87.5 445.5zM1933 1749v373h246v-1917q0 -230 -44.5 -419.5t-156 -337.5t-308 -232t-486.5 -84
q-291 0 -490.5 94t-299 235.5t-107.5 280.5h262q36 -152 128.5 -238.5t220.5 -118.5t286 -32q312 0 478 137t218.5 350t52.5 500q-112 -187 -319 -292t-438 -105q-235 0 -415.5 89t-298.5 247t-175.5 358.5t-57.5 427.5q0 243 54.5 443.5t171.5 352.5t299.5 235t433.5 83
q136 0 281 -50.5t267 -149t189 -230.5h8z" />
    <glyph glyph-name="h" unicode="h" 
d="M541 0h-246v2949h246v-1122q164 176 321.5 264t362.5 88q439 0 647 -303q70 -104 88 -212.5t18 -274.5v-1389h-245v1384q0 291 -129.5 432.5t-419.5 141.5q-215 0 -371 -119.5t-219 -294.5q-53 -146 -53 -401v-1143z" />
    <glyph glyph-name="i" unicode="i" horiz-adv-x="909" 
d="M578 0h-246v2122h246v-2122zM590 2585h-271v364h271v-364z" />
    <glyph glyph-name="j" unicode="j" horiz-adv-x="909" 
d="M360 2122h246v-2405q0 -204 -27 -318t-118 -174.5t-281 -60.5q-83 0 -160 17v217q20 -2 54 -5t49 -3q134 0 185.5 71t51.5 224v2437zM618 2949v-364h-270v364h270z" />
    <glyph glyph-name="k" unicode="k" horiz-adv-x="2048" 
d="M524 0h-245v2949h245v-1835l1041 1008h336l-795 -766l889 -1356h-275l-794 1184l-402 -381v-803z" />
    <glyph glyph-name="l" unicode="l" horiz-adv-x="909" 
d="M578 0h-246v2949h246v-2949z" />
    <glyph glyph-name="m" unicode="m" horiz-adv-x="3412" 
d="M508 1143v-1143h-246v2122h246v-320h8q94 178 270.5 277.5t384.5 99.5q271 0 407.5 -106t215.5 -304q103 203 282 306.5t410 103.5q393 0 526.5 -225.5t133.5 -614.5v-1339h-246v1466q0 242 -103 367t-352 125q-297 0 -479 -242q-139 -182 -139 -573v-1143h-246v1466
q0 158 -42 266.5t-143 167t-270 58.5q-297 0 -479 -242q-139 -182 -139 -573z" />
    <glyph glyph-name="n" unicode="n" 
d="M541 1143v-1143h-246v2122h246v-295q164 176 321.5 264t362.5 88q439 0 647 -303q70 -104 88 -212.5t18 -274.5v-1389h-245v1384q0 291 -129.5 432.5t-419.5 141.5q-215 0 -371 -119.5t-219 -294.5q-53 -146 -53 -401z" />
    <glyph glyph-name="o" unicode="o" 
d="M1139 -57q-276 0 -499.5 127t-353.5 381t-130 610q0 314 111 568.5t334 402t538 147.5q318 0 541 -146.5t332.5 -399.5t109.5 -572q0 -251 -69.5 -457t-199 -353.5t-312.5 -227.5t-402 -80zM1860 1061q0 404 -175.5 650.5t-545.5 246.5q-245 0 -407.5 -124t-238 -328.5
t-75.5 -444.5q0 -266 82.5 -469t246.5 -315.5t392 -112.5q243 0 406.5 124.5t239 329t75.5 443.5z" />
    <glyph glyph-name="p" unicode="p" horiz-adv-x="2503" 
d="M569 1053q0 -241 87 -445t250.5 -324t379.5 -120q243 0 406.5 127t241 345t77.5 490q0 261 -93.5 449t-258.5 285.5t-373 97.5q-225 0 -387 -117.5t-246 -323.5t-84 -464zM569 340v-1176h-245v2958h245v-373h9q66 131 188.5 230.5t267 149.5t281.5 50q252 0 434 -83
t299 -235t171 -353t54 -443q0 -306 -104.5 -562t-318 -408t-523.5 -152q-151 0 -295.5 45.5t-266 136.5t-196.5 215z" />
    <glyph glyph-name="q" unicode="q" horiz-adv-x="2503" 
d="M1933 1069q0 239 -87.5 444t-250 325t-378.5 120q-243 0 -407 -124.5t-241 -342.5t-77 -496q0 -260 93.5 -448t258.5 -285.5t373 -97.5q225 0 386.5 117t245.5 323.5t84 464.5zM1933 1749v373h246v-2958h-246v1176q-112 -187 -319 -292t-438 -105q-235 0 -415.5 89
t-298.5 247t-175.5 358.5t-57.5 427.5q0 243 54.5 443.5t171.5 352.5t299.5 235t433.5 83q136 0 281 -50.5t267 -149t189 -230.5h8z" />
    <glyph glyph-name="r" unicode="r" horiz-adv-x="1364" 
d="M553 1040v-1040h-246v2122h246v-398h8q100 251 260.5 353t431.5 102v-266q-700 0 -700 -873z" />
    <glyph glyph-name="s" unicode="s" horiz-adv-x="2048" 
d="M500 1593q0 -190 154.5 -262.5t502.5 -158.5t525.5 -211.5t177.5 -399.5q0 -197 -110 -336t-305.5 -210.5t-449.5 -71.5q-242 0 -421 94.5t-277 258t-109 368.5h250q58 -270 207 -385t428 -115q255 0 389.5 113.5t134.5 279.5q0 203 -158 275.5t-503 146.5t-521.5 194
t-176.5 400q0 270 198.5 438t546.5 168q734 0 819 -668h-250q-61 447 -573 447q-228 0 -353.5 -99t-125.5 -266z" />
    <glyph glyph-name="t" unicode="t" horiz-adv-x="1139" 
d="M1040 193v-201q-37 -9 -84.5 -21t-95 -20t-102.5 -8q-189 0 -283 97t-94 325v1552h-299v205h299v590h246v-590h397v-205h-397v-1454q0 -121 11.5 -180t57 -89t144.5 -30q89 0 200 29z" />
    <glyph glyph-name="u" unicode="u" 
d="M1733 967v1155h245v-2122h-245v295q-141 -161 -290 -256.5t-394 -95.5q-399 0 -576.5 211t-177.5 571v1397h246v-1393q0 -565 544 -565q299 0 473.5 223t174.5 580z" />
    <glyph glyph-name="v" unicode="v" horiz-adv-x="2048" 
d="M881 0l-811 2122h266l688 -1819l688 1819h266l-823 -2122h-274z" />
    <glyph glyph-name="w" unicode="w" horiz-adv-x="2957" 
d="M1622 2122l467 -1794l557 1794h250l-688 -2122h-262l-463 1782h-8l-471 -1782h-295l-648 2122h246l549 -1811l492 1811h274z" />
    <glyph glyph-name="x" unicode="x" horiz-adv-x="2048" 
d="M1675 0l-643 918l-659 -918h-299l815 1098l-750 1024h303l586 -844l602 844h312l-766 -1024l794 -1098h-295z" />
    <glyph glyph-name="y" unicode="y" horiz-adv-x="2048" 
d="M279 -807v229q130 -24 204 -24q125 0 197.5 94t135.5 275t81 217l-823 2138h274l680 -1823l680 1823h266l-790 -2093q-124 -329 -205 -497.5t-193.5 -268t-273.5 -99.5q-115 0 -233 29z" />
    <glyph glyph-name="z" unicode="z" horiz-adv-x="2048" 
d="M1913 0h-1778v217l1409 1700h-1315v205h1631v-217l-1409 -1700h1462v-205z" />
    <glyph glyph-name="braceleft" unicode="{" horiz-adv-x="1364" 
d="M520 1618v745q0 253 52.5 393.5t186.5 201.5t384 61l-8 8q-353 -116 -353 -504v-786q0 -265 -67.5 -411t-268.5 -200v-8q193 -43 264.5 -174t71.5 -379v-844q0 -206 84.5 -323t276.5 -172v-8q-242 0 -377 59.5t-190.5 186.5t-55.5 343v836q0 208 -70 323.5t-266 151.5v8
q146 42 218.5 103.5t95 150.5t22.5 238z" />
    <glyph glyph-name="bar" unicode="|" horiz-adv-x="909" 
d="M332 0v3027h246v-3027h-246z" />
    <glyph glyph-name="braceright" unicode="}" horiz-adv-x="1364" 
d="M831 643v-745q0 -252 -53 -395.5t-185 -206t-376 -62.5q188 57 270 179t82 325v786q0 265 68.5 411t267.5 200v8q-193 44 -264.5 176.5t-71.5 376.5v844q0 208 -83.5 324t-276.5 171v8q242 0 377 -59.5t190 -186.5t55 -343v-836q0 -205 70 -321t266 -154v-8
q-146 -42 -218.5 -103.5t-95 -150.5t-22.5 -238z" />
    <glyph glyph-name="asciitilde" unicode="~" horiz-adv-x="2703" 
d="M905 1327q159 0 479 -147q183 -82 269.5 -115t152.5 -33q218 0 406 357l164 -140q-232 -446 -574 -446q-131 0 -553 172q-18 8 -100 47t-137 57.5t-107 18.5q-143 0 -240.5 -104t-201.5 -281l-135 192q129 192 257 307t320 115z" />
    <glyph glyph-name="quotesinglbase" unicode="&#x201a;" horiz-adv-x="909" 
d="M627 360v-483q0 -171 -81.5 -283t-217.5 -155v151q139 88 139 271v139h-139v360h299z" />
    <glyph glyph-name="afii10100" unicode="&#x192;" 
d="M2208 2925l-82 -201q0 8 -76 34.5t-133 26.5q-149 0 -238 -81t-136.5 -210.5t-93 -355.5t-65.5 -303h471v-197h-503l-262 -1376q-80 -338 -167.5 -561.5t-244 -363.5t-399.5 -140q-95 0 -226 45l78 234q90 -54 213 -54q119 0 207.5 102.5t156 295.5t125.5 462t134 693
l118 663h-462v197h495q41 177 93 394t131.5 386.5t221.5 280t357 110.5q143 0 287 -81z" />
    <glyph glyph-name="quotedblbase" unicode="&#x201e;" horiz-adv-x="1593" 
d="M1241 360v-483q0 -171 -81.5 -283t-217.5 -155v151q139 86 139 271v139h-139v360h299zM623 360v-483q0 -171 -81.5 -283t-217.5 -155v151q139 88 139 271v139h-139v360h299z" />
    <glyph glyph-name="ellipsis" unicode="&#x2026;" horiz-adv-x="4096" 
d="M836 0h-299v360h299v-360zM2200 0h-299v360h299v-360zM3564 0h-299v360h299v-360z" />
    <glyph glyph-name="dagger" unicode="&#x2020;" 
d="M1016 -680v2466h-864v221h864v942h246v-942h864v-221h-864v-2466h-246z" />
    <glyph glyph-name="daggerdbl" unicode="&#x2021;" 
d="M1016 446v1369h-864v221h864v913h246v-913h864v-221h-864v-1369h864v-221h-864v-905h-246v905h-864v221h864z" />
    <glyph glyph-name="circumflex" unicode="&#x2c6;" horiz-adv-x="1364" 
d="M700 2769l-335 -418h-267l467 569h275l463 -569h-267z" />
    <glyph glyph-name="perthousand" unicode="&#x2030;" horiz-adv-x="4096" 
d="M3424 1225q164 0 305 -84t223.5 -226t82.5 -305q0 -165 -82 -305t-223.5 -222.5t-305.5 -82.5q-166 0 -307 82.5t-224 223.5t-83 304t84 305t225.5 226t304.5 84zM3424 233q149 0 263 115t114 262q0 100 -52 187t-139 140.5t-186 53.5q-155 0 -268 -113t-113 -268
q0 -149 115.5 -263t265.5 -114zM668 2859q164 0 305 -82.5t225 -223t84 -304.5q0 -166 -83 -308t-224 -224.5t-307 -82.5q-164 0 -305 84t-223.5 226t-82.5 305q0 161 83 302.5t224.5 224.5t303.5 83zM668 2626q-154 0 -265.5 -113t-111.5 -264q0 -100 52 -187t139 -140.5
t186 -53.5q150 0 265.5 114.5t115.5 266.5q0 154 -115 265.5t-266 111.5zM569 -57h-217l1667 2945h217zM1937 1225q162 0 305 -84t226.5 -225t83.5 -306t-83.5 -306.5t-225 -222.5t-306.5 -81q-163 0 -304.5 83.5t-223.5 223.5t-82 303q0 162 83.5 304.5t224 226.5t302.5 84
zM1937 233q94 0 183.5 52t143.5 139.5t54 185.5q0 152 -113.5 266.5t-267.5 114.5q-152 0 -264 -114.5t-112 -266.5q0 -149 114 -263t262 -114z" />
    <glyph glyph-name="guilsinglleft" unicode="&#x2039;" horiz-adv-x="1593" 
d="M496 934v258l598 463v-258l-426 -336l426 -328v-254z" />
    <glyph glyph-name="quoteleft" unicode="&#x2018;" horiz-adv-x="909" 
d="M283 2028v483q0 171 82 284t217 154v-151q-140 -87 -140 -271v-139h140v-360h-299z" />
    <glyph glyph-name="quoteright" unicode="&#x2019;" horiz-adv-x="909" 
d="M627 2949v-483q0 -171 -81.5 -283t-217.5 -155v151q139 88 139 270v140h-139v360h299z" />
    <glyph glyph-name="quotedblleft" unicode="&#x201c;" horiz-adv-x="1593" 
d="M971 2028v483q0 171 82 284t217 154v-151q-140 -87 -140 -271v-139h140v-360h-299zM352 2028v483q0 171 82 284t217 154v-151q-139 -88 -139 -271v-139h139v-360h-299z" />
    <glyph glyph-name="quotedblright" unicode="&#x201d;" horiz-adv-x="1593" 
d="M1241 2949v-483q0 -171 -81.5 -283t-217.5 -155v151q139 86 139 270v140h-139v360h299zM623 2949v-483q0 -171 -81.5 -283t-217.5 -155v151q139 88 139 270v140h-139v360h299z" />
    <glyph glyph-name="bullet" unicode="&#x2022;" horiz-adv-x="2048" 
d="M1761 1470q0 -198 -99.5 -366.5t-270.5 -267.5t-371 -99q-196 0 -365.5 99t-268.5 267.5t-99 366.5q0 203 99 372.5t268 269.5t366 100q201 0 371.5 -99.5t270 -269.5t99.5 -373z" />
    <glyph glyph-name="emdash" unicode="&#x2013;" horiz-adv-x="2048" 
d="M2048 1155v-180h-2048v180h2048z" />
    <glyph glyph-name="endash" unicode="&#x2014;" horiz-adv-x="4096" 
d="M4096 975h-4096v180h4096v-180z" />
    <glyph glyph-name="tilde" unicode="&#x2dc;" horiz-adv-x="1364" 
d="M213 2400h-147q10 128 81 242q111 156 304 156q56 0 121.5 -24.5t161.5 -69.5t161 -68t117 -23q136 0 180 205h156q-3 -30 -33 -156q-108 -245 -303 -245q-73 0 -145 23.5t-170.5 70t-158 68.5t-124.5 22q-83 0 -126 -52t-75 -149z" />
    <glyph glyph-name="trademark" unicode="&#x2122;" horiz-adv-x="3850" 
d="M3518 2949v-1724h-213v1544h-8l-594 -1544h-139l-594 1544h-8v-1544h-213v1724h393l492 -1274h8l483 1274h393zM1430 2949v-164h-549v-1560h-213v1560h-549v164h1311z" />
    <glyph glyph-name="guilsinglright" unicode="&#x203a;" horiz-adv-x="1593" 
d="M1098 1200v-258l-598 -463v258l426 336l-426 328v254z" />
    <glyph glyph-name="afii10062" unicode="&#xa1;" horiz-adv-x="1364" 
d="M590 1442h184l57 -1290v-918h-299v918zM831 1823h-299v356h299v-356z" />
    <glyph glyph-name="afii10110" unicode="&#xa2;" 
d="M782 279l545 1658q-65 21 -168 21q-237 0 -399 -128t-238 -334t-76 -439q0 -163 36.5 -312t112 -271t187.5 -195zM1503 1868l-553 -1675q113 -29 209 -29q270 0 439.5 151.5t211.5 417.5h263q-50 -337 -288.5 -563.5t-625.5 -226.5q-140 0 -278 32l-185 -553h-192
l201 615q-261 126 -391 393.5t-130 626.5q0 351 125.5 604.5t347 385.5t502.5 132q119 0 242 -20l164 491h196l-180 -549q387 -164 459 -647h-250q-75 283 -287 414z" />
    <glyph glyph-name="afii10057" unicode="&#xa3;" 
d="M754 1495h680v-172h-619q45 -155 45 -279q0 -369 -393 -770l8 -8q216 111 365 111q206 0 409 -86q116 -47 182 -66.5t158 -19.5q129 0 226 58t217 175l139 -209q-186 -169 -328 -227.5t-385 -58.5q-87 0 -323 90q-238 90 -402 90q-103 0 -187.5 -31.5t-242.5 -103.5
l-143 237q191 138 312.5 330.5t121.5 407.5q0 186 -86 360h-406v172h332q-2 4 -74 136.5t-107.5 244.5t-35.5 262q0 217 103.5 387.5t309.5 266.5t500 96q272 0 482.5 -108.5t329 -310t118.5 -470.5h-270q-12 320 -186 493.5t-469 173.5q-172 0 -321.5 -61t-242 -183.5
t-92.5 -295.5q0 -111 39 -208t130.5 -247t105.5 -176z" />
    <glyph glyph-name="currency" unicode="&#xa4;" 
d="M131 451l176 172q-196 287 -196 606q0 342 196 618l-176 176l213 218l180 -177q266 201 631 201q307 0 598 -201l180 177l213 -218l-176 -176q197 -283 197 -639q0 -167 -48 -302t-149 -283l176 -172l-213 -218l-180 177q-277 -205 -635 -205q-302 0 -594 205l-180 -177z
M1155 1970q-210 0 -381 -96t-269.5 -266t-98.5 -379q0 -198 99 -366.5t265 -267.5t360 -99q202 0 373.5 99t272 270t100.5 376q0 146 -55.5 277.5t-156.5 234t-232 160t-277 57.5z" />
    <glyph glyph-name="afii10050" unicode="&#xa5;" 
d="M328 2949l807 -1421l827 1421h299l-700 -1171h454v-222h-590l-155 -270v-172h745v-221h-745v-893h-262v893h-746v221h746v172l-156 270h-590v222h455l-701 1171h312z" />
    <glyph glyph-name="brokenbar" unicode="&#xa6;" horiz-adv-x="909" 
d="M332 0v1212h246v-1212h-246zM332 1815v1212h246v-1212h-246z" />
    <glyph glyph-name="section" unicode="&#xa7;" 
d="M1487 1397l-709 434q-360 -149 -360 -426q0 -96 50 -179t122.5 -144.5t175.5 -131.5l729 -471q365 201 365 463q0 145 -104.5 251t-268.5 204zM1151 418l-537 336q-136 84 -228 174t-140.5 199.5t-48.5 244.5q0 198 124 354t314 236q-113 129 -165 231.5t-52 239.5
q0 163 86 298.5t254 215.5t401 80q337 0 523 -197t186 -536h-221q0 259 -124.5 385.5t-383.5 126.5q-204 0 -331.5 -101.5t-127.5 -296.5q0 -183 162 -312.5t517 -329t538.5 -371t183.5 -412.5q0 -213 -114 -351t-337 -288q238 -217 238 -450q0 -201 -96.5 -345.5
t-260.5 -217t-364 -72.5q-343 0 -544 199.5t-218 545.5h250q0 -254 131 -389t385 -135q184 0 319.5 102t135.5 283q0 173 -120 292.5t-335 260.5z" />
    <glyph glyph-name="afii10023" unicode="&#xa8;" horiz-adv-x="2503" 
d="M2335 0h-2003v2949h1962v-237h-1684v-1065h1520v-238h-1520v-1171h1725v-238zM815 3219v418h266v-418h-266zM1466 3219v418h267v-418h-267z" />
    <glyph glyph-name="copyright" unicode="&#xa9;" horiz-adv-x="3277" 
d="M1642 -78q-421 0 -779.5 209t-567.5 567.5t-209 780.5q0 418 209 774.5t568 565t779 208.5q318 0 599.5 -119.5t496 -334t334 -497t119.5 -597.5q0 -424 -208 -782t-565 -566.5t-776 -208.5zM1642 127q369 0 668 178.5t467 489t168 684.5q0 370 -168 678.5t-467 486.5
t-668 178q-370 0 -670.5 -178t-470 -486t-169.5 -679q0 -375 169.5 -685.5t470 -488.5t670.5 -178zM2208 1196h221q-17 -180 -119.5 -317.5t-260 -211t-337.5 -73.5q-253 0 -449 117t-303.5 321.5t-107.5 458.5q0 391 229 640t619 249q287 0 487.5 -156t241.5 -430h-221
q-33 183 -174.5 294.5t-329.5 111.5q-294 0 -454 -200t-160 -505q0 -141 41.5 -271t121.5 -231.5t197.5 -160t261.5 -58.5q187 0 330 117.5t166 304.5z" />
    <glyph glyph-name="afii10053" unicode="&#xaa;" horiz-adv-x="2957" 
d="M2712 2093h-287q-83 368 -312 532t-618 164q-316 0 -548 -152.5t-352 -412t-120 -577.5h1262v-238h-1262q0 -335 104.5 -618t340 -457t600.5 -174q246 0 437.5 103.5t315 285t181.5 422.5h290q-69 -301 -222 -537.5t-417 -374t-639 -137.5q-644 0 -956.5 436t-312.5 1117
q0 542 175 889t482 505t715 158q302 0 544.5 -107t396.5 -316t202 -511z" />
    <glyph glyph-name="guillemotleft" unicode="&#xab;" 
d="M1217 934v258l598 463v-258l-426 -336l426 -328v-254zM463 934v258l598 463v-258l-426 -336l426 -328v-254z" />
    <glyph glyph-name="logicalnot" unicode="&#xac;" horiz-adv-x="2703" 
d="M2114 459v844h-1786v245h2048v-1089h-262z" />
    <glyph glyph-name="hyphen" unicode="&#xad;" horiz-adv-x="1364" 
d="M164 1192h1036v-254h-1036v254z" />
    <glyph glyph-name="registered" unicode="&#xae;" horiz-adv-x="3277" 
d="M1642 -78q-421 0 -779.5 209t-567.5 567.5t-209 780.5q0 418 209 774.5t568 565t779 208.5q318 0 599.5 -119.5t496 -334t334 -497t119.5 -597.5q0 -424 -208 -782t-565 -566.5t-776 -208.5zM1642 127q369 0 668 178.5t467 489t168 684.5q0 370 -168 678.5t-467 486.5
t-668 178q-370 0 -670.5 -178t-470 -486t-169.5 -679q0 -375 169.5 -685.5t470 -488.5t670.5 -178zM1892 1409l525 -799h-254l-496 799h-389v-799h-213v1733h758q331 0 472.5 -116.5t141.5 -342.5q0 -244 -147 -359.5t-398 -115.5zM1278 1577h479q212 0 331.5 65t119.5 246
q0 183 -117.5 243t-316.5 60h-496v-614z" />
    <glyph glyph-name="afii10056" unicode="&#xaf;" horiz-adv-x="1139" 
d="M709 0h-279v2949h279v-2949zM53 3219v418h266v-418h-266zM705 3219v418h266v-418h-266z" />
    <glyph glyph-name="degree" unicode="&#xb0;" horiz-adv-x="1638" 
d="M1438 2273q0 -166 -83.5 -308t-225 -224t-306.5 -82q-168 0 -309 82t-223 223t-82 309q0 163 82.5 305t223.5 226t308 84q164 0 306 -83.5t225.5 -225.5t83.5 -306zM1274 2273q0 120 -61 224t-167 165.5t-227 61.5q-184 0 -315 -133t-131 -318q0 -186 132 -318t318 -132
q185 0 318 132t133 318z" />
    <glyph glyph-name="plusminus" unicode="&#xb1;" horiz-adv-x="2703" 
d="M1229 1352v696h246v-696h901v-246h-901v-696h-246v696h-901v246h901zM328 0v246h2048v-246h-2048z" />
    <glyph glyph-name="afii10055" unicode="&#xb2;" horiz-adv-x="1139" 
d="M709 0h-279v2949h279v-2949z" />
    <glyph glyph-name="afii10103" unicode="&#xb3;" horiz-adv-x="909" 
d="M578 0h-246v2122h246v-2122zM590 2585h-271v364h271v-364z" />
    <glyph glyph-name="afii10098" unicode="&#xb4;" horiz-adv-x="1364" 
d="M655 2351h-209l455 569h316z" />
    <glyph glyph-name="mu" unicode="&#xb5;" 
d="M1733 967v1155h245v-2122h-245v295q-141 -161 -290 -256.5t-394 -95.5q-298 0 -508 131v-910h-246v2958h246v-1393q0 -565 544 -565q299 0 473.5 223t174.5 580z" />
    <glyph glyph-name="paragraph" unicode="&#xb6;" horiz-adv-x="2662" 
d="M1057 -598v1974q-205 0 -387.5 106.5t-291 286.5t-108.5 385q0 189 62 337.5t179.5 250t288 154.5t384.5 53h889v-3547h-246v3273h-524v-3273h-246z" />
    <glyph glyph-name="periodcentered" unicode="&#xb7;" horiz-adv-x="1139" 
d="M569 1630q81 0 139 -58t58 -138q0 -82 -57.5 -141.5t-139.5 -59.5q-81 0 -140.5 60.5t-59.5 140.5q0 78 61 137t139 59z" />
    <glyph glyph-name="afii10071" unicode="&#xb8;" 
d="M446 1208h1385q0 210 -77 381t-228.5 270t-366.5 99q-209 0 -360.5 -100.5t-238.5 -270t-114 -379.5zM2093 1004h-1647q0 -230 82 -423t242.5 -305t388.5 -112q244 0 417 128.5t226 358.5h275q-217 -708 -918 -708q-328 0 -547.5 143.5t-323.5 395t-104 571.5
q0 231 67 436.5t195 361t310 242t403 86.5q217 0 391.5 -76.5t295 -225.5t184 -369.5t63.5 -503.5zM705 2392v418h266v-418h-266zM1356 2392v418h266v-418h-266z" />
    <glyph glyph-name="afii61352" unicode="&#xb9;" horiz-adv-x="4420" 
d="M2306 0l-1696 2572h-8v-2572h-278v2949h315l1704 -2576h8v2576h279v-2949h-324zM2920 213v160h1278v-160h-1278zM3080 1311q0 -243 127.5 -396t351.5 -153q159 0 267.5 78t160.5 203.5t52 267.5q0 242 -119 395.5t-361 153.5q-235 0 -357 -161.5t-122 -387.5zM3559 639
q-277 0 -458 177t-181 495q0 294 166 482.5t473 188.5q309 0 474 -188t165 -483q0 -198 -79 -351t-225.5 -237t-334.5 -84z" />
    <glyph glyph-name="afii10101" unicode="&#xba;" 
d="M2048 1454h-250q-65 241 -226.5 372.5t-404.5 131.5q-212 0 -365.5 -103t-237.5 -274t-101 -373h835v-204h-843q8 -225 86.5 -416.5t236 -307.5t389.5 -116q270 0 439 151t213 418h262q-67 -368 -297.5 -579t-616.5 -211q-245 0 -431 84t-306 235t-178.5 354.5
t-58.5 440.5q0 226 64 428t188 358.5t307.5 246t414.5 89.5q244 0 429.5 -79t300 -240.5t151.5 -405.5z" />
    <glyph glyph-name="guillemotright" unicode="&#xbb;" 
d="M1815 1200v-258l-598 -463v258l425 336l-425 328v254zM1061 1200v-258l-598 -463v258l426 336l-426 328v254z" />
    <glyph glyph-name="afii10105" unicode="&#xbc;" horiz-adv-x="2703" 
d="M328 901v246h2048v-246h-2048zM1503 0h-299v360h299v-360zM1503 1688h-299v360h299v-360z" />
    <glyph glyph-name="afii10054" unicode="&#xbd;" horiz-adv-x="2703" 
d="M1356 885l-864 -860l-152 147l864 864l-864 865l152 147l864 -860l860 860l151 -147l-860 -865l860 -864l-151 -147z" />
    <glyph glyph-name="afii10102" unicode="&#xbe;" horiz-adv-x="4096" 
d="M836 0h-299v360h299v-360zM2200 0h-299v360h299v-360zM3564 0h-299v360h299v-360z" />
    <glyph glyph-name="afii10104" unicode="&#xbf;" horiz-adv-x="909" 
d="M565 0h-246v2122h246v-2122zM-61 2392v418h266v-418h-266zM590 2392v418h266v-418h-266z" />
    <glyph glyph-name="afii10017" unicode="&#xc0;" horiz-adv-x="2732" 
d="M348 0h-287l1160 2949h315l1130 -2949h-286l-340 926h-1344zM1368 2712l-577 -1549h1155z" />
    <glyph glyph-name="afii10017" unicode="&#x410;" horiz-adv-x="2732" 
d="M348 0h-287l1160 2949h315l1130 -2949h-286l-340 926h-1344zM1368 2712l-577 -1549h1155z" />
    <glyph glyph-name="afii10018" unicode="&#xc1;" horiz-adv-x="2503" 
d="M319 2949h1827v-237h-1548v-1065h696q1065 0 1065 -824q0 -823 -983 -823h-1057v2949zM598 1409v-1171h582q252 0 414 22t270.5 84.5t162.5 180t54 306.5q0 342 -214.5 460t-654.5 118h-614z" />
    <glyph glyph-name="afii10018" unicode="&#x411;" horiz-adv-x="2503" 
d="M319 2949h1827v-237h-1548v-1065h696q1065 0 1065 -824q0 -823 -983 -823h-1057v2949zM598 1409v-1171h582q252 0 414 22t270.5 84.5t162.5 180t54 306.5q0 342 -214.5 460t-654.5 118h-614z" />
    <glyph glyph-name="afii10019" unicode="&#xc2;" horiz-adv-x="2732" 
d="M610 1409v-1171h709q252 0 414 22t270.5 84.5t162.5 180t54 306.5q0 342 -214.5 460t-653.5 118h-742zM610 2712v-1065h705q286 0 454.5 64t242 188.5t73.5 308.5q0 187 -81 296t-262.5 158.5t-488.5 49.5h-643zM1536 0h-1204v2949h1065q334 0 550.5 -91t316 -256.5
t99.5 -393.5q0 -285 -135 -442t-336 -193v-8q298 -46 452.5 -240t154.5 -494q0 -831 -963 -831z" />
    <glyph glyph-name="afii10019" unicode="&#x412;" horiz-adv-x="2732" 
d="M610 1409v-1171h709q252 0 414 22t270.5 84.5t162.5 180t54 306.5q0 342 -214.5 460t-653.5 118h-742zM610 2712v-1065h705q286 0 454.5 64t242 188.5t73.5 308.5q0 187 -81 296t-262.5 158.5t-488.5 49.5h-643zM1536 0h-1204v2949h1065q334 0 550.5 -91t316 -256.5
t99.5 -393.5q0 -285 -135 -442t-336 -193v-8q298 -46 452.5 -240t154.5 -494q0 -831 -963 -831z" />
    <glyph glyph-name="afii10020" unicode="&#xc3;" 
d="M2191 2949h-1859v-2949h278v2712h1581v237z" />
    <glyph glyph-name="afii10020" unicode="&#x413;" 
d="M2191 2949h-1859v-2949h278v2712h1581v237z" />
    <glyph glyph-name="afii10021" unicode="&#xc4;" horiz-adv-x="2814" 
d="M299 238q99 208 157.5 357t98.5 318.5t62 404.5t22 566v1065h1847v-2711h226v-914h-271v676h-2089v-676h-270v914h217zM2208 2712h-1299v-938q0 -507 -77.5 -858.5t-241.5 -677.5h1618v2474z" />
    <glyph glyph-name="afii10021" unicode="&#x414;" horiz-adv-x="2814" 
d="M299 238q99 208 157.5 357t98.5 318.5t62 404.5t22 566v1065h1847v-2711h226v-914h-271v676h-2089v-676h-270v914h217zM2208 2712h-1299v-938q0 -507 -77.5 -858.5t-241.5 -677.5h1618v2474z" />
    <glyph glyph-name="afii10022" unicode="&#xc5;" horiz-adv-x="2503" 
d="M2335 0h-2003v2949h1962v-237h-1684v-1065h1520v-238h-1520v-1171h1725v-238z" />
    <glyph glyph-name="afii10022" unicode="&#x415;" horiz-adv-x="2503" 
d="M2335 0h-2003v2949h1962v-237h-1684v-1065h1520v-238h-1520v-1171h1725v-238z" />
    <glyph glyph-name="afii10024" unicode="&#xc6;" horiz-adv-x="4092" 
d="M2187 2949h-278v-1524l-1377 1524h-327l1122 -1233l-1286 -1716h319l1151 1528l398 -438v-1090h278v1090l398 438l1151 -1528h319l-1286 1716l1122 1233h-327l-1377 -1524v1524z" />
    <glyph glyph-name="afii10024" unicode="&#x416;" horiz-adv-x="4092" 
d="M2187 2949h-278v-1524l-1377 1524h-327l1122 -1233l-1286 -1716h319l1151 1528l398 -438v-1090h278v1090l398 438l1151 -1528h319l-1286 1716l1122 1233h-327l-1377 -1524v1524z" />
    <glyph glyph-name="afii10025" unicode="&#xc7;" horiz-adv-x="2576" 
d="M1380 1409h-241v238h180q217 0 370 65.5t233.5 200.5t80.5 336q0 179 -100.5 299.5t-272 178.5t-381.5 58q-317 0 -517 -157.5t-200 -485.5h-274q0 405 259 643t732 238q299 0 533.5 -84.5t366.5 -255.5t132 -418q0 -510 -458 -709q177 -49 306.5 -164.5t196 -270
t66.5 -318.5q0 -205 -66.5 -367t-204 -277.5t-345 -176t-486.5 -60.5q-325 0 -574 106.5t-390.5 322.5t-141.5 530h271q22 -260 124.5 -419t282 -230.5t441.5 -71.5q287 0 469.5 81.5t262 219.5t79.5 309q0 196 -87 340t-253 221.5t-394 77.5z" />
    <glyph glyph-name="afii10025" unicode="&#x417;" horiz-adv-x="2576" 
d="M1380 1409h-241v238h180q217 0 370 65.5t233.5 200.5t80.5 336q0 179 -100.5 299.5t-272 178.5t-381.5 58q-317 0 -517 -157.5t-200 -485.5h-274q0 405 259 643t732 238q299 0 533.5 -84.5t366.5 -255.5t132 -418q0 -510 -458 -709q177 -49 306.5 -164.5t196 -270
t66.5 -318.5q0 -205 -66.5 -367t-204 -277.5t-345 -176t-486.5 -60.5q-325 0 -574 106.5t-390.5 322.5t-141.5 530h271q22 -260 124.5 -419t282 -230.5t441.5 -71.5q287 0 469.5 81.5t262 219.5t79.5 309q0 196 -87 340t-253 221.5t-394 77.5z" />
    <glyph glyph-name="afii10026" unicode="&#xc8;" horiz-adv-x="2957" 
d="M643 0l1696 2572h8v-2572h279v2949h-316l-1704 -2576h-8v2576h-279v-2949h324z" />
    <glyph glyph-name="afii10026" unicode="&#x418;" horiz-adv-x="2957" 
d="M643 0l1696 2572h8v-2572h279v2949h-316l-1704 -2576h-8v2576h-279v-2949h324z" />
    <glyph glyph-name="afii10027" unicode="&#xc9;" horiz-adv-x="2957" 
d="M643 0l1696 2572h8v-2572h279v2949h-316l-1704 -2576h-8v2576h-279v-2949h324zM909 3805h160q66 -332 430 -332q355 0 438 332h152q-26 -252 -189 -384t-421 -132q-245 0 -398 137.5t-172 378.5z" />
    <glyph glyph-name="afii10027" unicode="&#x419;" horiz-adv-x="2957" 
d="M643 0l1696 2572h8v-2572h279v2949h-316l-1704 -2576h-8v2576h-279v-2949h324zM909 3805h160q66 -332 430 -332q355 0 438 332h152q-26 -252 -189 -384t-421 -132q-245 0 -398 137.5t-172 378.5z" />
    <glyph glyph-name="afii10028" unicode="&#xca;" horiz-adv-x="2732" 
d="M627 0h-279v2949h279v-1487l1462 1487h365l-1164 -1175l1368 -1774h-340l-1228 1602l-463 -463v-1139z" />
    <glyph glyph-name="afii10028" unicode="&#x41a;" horiz-adv-x="2732" 
d="M627 0h-279v2949h279v-1487l1462 1487h365l-1164 -1175l1368 -1774h-340l-1228 1602l-463 -463v-1139z" />
    <glyph glyph-name="afii10029" unicode="&#xcb;" horiz-adv-x="2834" 
d="M549 2949h1962v-2949h-279v2712h-1405v-1278q0 -790 -132 -1140.5t-412 -350.5q-97 0 -217 32v226q106 -21 192 -21q146 0 218.5 349.5t72.5 1112.5v1307z" />
    <glyph glyph-name="afii10029" unicode="&#x41b;" horiz-adv-x="2834" 
d="M549 2949h1962v-2949h-279v2712h-1405v-1278q0 -790 -132 -1140.5t-412 -350.5q-97 0 -217 32v226q106 -21 192 -21q146 0 218.5 349.5t72.5 1112.5v1307z" />
    <glyph glyph-name="afii10030" unicode="&#xcc;" horiz-adv-x="3412" 
d="M598 0h-279v2949h426l967 -2601h8l951 2601h421v-2949h-278v2630h-8l-967 -2630h-262l-971 2630h-8v-2630z" />
    <glyph glyph-name="afii10030" unicode="&#x41c;" horiz-adv-x="3412" 
d="M598 0h-279v2949h426l967 -2601h8l951 2601h421v-2949h-278v2630h-8l-967 -2630h-262l-971 2630h-8v-2630z" />
    <glyph glyph-name="afii10031" unicode="&#xcd;" horiz-adv-x="2957" 
d="M606 0h-278v2949h278v-1266h1745v1266h279v-2949h-279v1446h-1745v-1446z" />
    <glyph glyph-name="afii10031" unicode="&#x41d;" horiz-adv-x="2957" 
d="M606 0h-278v2949h278v-1266h1745v1266h279v-2949h-279v1446h-1745v-1446z" />
    <glyph glyph-name="afii10032" unicode="&#xce;" horiz-adv-x="3187" 
d="M221 1470q0 326 90 610t263.5 496t428.5 331.5t578 119.5q339 0 600.5 -118.5t436 -330.5t263.5 -495t89 -613q0 -321 -88 -601.5t-262.5 -494t-435 -333t-591.5 -119.5q-330 0 -589.5 119.5t-434 334t-261.5 493.5t-87 601zM1597 160q278 0 486.5 104t343 287t199.5 417
t65 502q0 306 -76 551.5t-220 417t-348 261t-458 89.5q-273 0 -481.5 -106t-342.5 -291t-199.5 -422t-65.5 -500q0 -361 117 -658.5t365.5 -474.5t614.5 -177z" />
    <glyph glyph-name="afii10032" unicode="&#x41e;" horiz-adv-x="3187" 
d="M221 1470q0 326 90 610t263.5 496t428.5 331.5t578 119.5q339 0 600.5 -118.5t436 -330.5t263.5 -495t89 -613q0 -321 -88 -601.5t-262.5 -494t-435 -333t-591.5 -119.5q-330 0 -589.5 119.5t-434 334t-261.5 493.5t-87 601zM1597 160q278 0 486.5 104t343 287t199.5 417
t65 502q0 306 -76 551.5t-220 417t-348 261t-458 89.5q-273 0 -481.5 -106t-342.5 -291t-199.5 -422t-65.5 -500q0 -361 117 -658.5t365.5 -474.5t614.5 -177z" />
    <glyph glyph-name="afii10033" unicode="&#xcf;" horiz-adv-x="2957" 
d="M606 0h-278v2949h2302v-2949h-279v2712h-1745v-2712z" />
    <glyph glyph-name="afii10033" unicode="&#x41f;" horiz-adv-x="2957" 
d="M606 0h-278v2949h2302v-2949h-279v2712h-1745v-2712z" />
    <glyph glyph-name="afii10034" unicode="&#xd0;" horiz-adv-x="2503" 
d="M319 2949v-2949h279v1303h696q1065 0 1065 823t-983 823h-1057zM598 1540v1172h582q333 0 522.5 -44t284 -172.5t94.5 -377.5q0 -233 -103 -360t-290.5 -172.5t-475.5 -45.5h-614z" />
    <glyph glyph-name="afii10034" unicode="&#x420;" horiz-adv-x="2503" 
d="M319 2949v-2949h279v1303h696q1065 0 1065 823t-983 823h-1057zM598 1540v1172h582q333 0 522.5 -44t284 -172.5t94.5 -377.5q0 -233 -103 -360t-290.5 -172.5t-475.5 -45.5h-614z" />
    <glyph glyph-name="afii10035" unicode="&#xd1;" horiz-adv-x="2957" 
d="M2712 2093h-287q-83 368 -312 532t-618 164q-259 0 -453.5 -102.5t-320 -283t-186 -416t-60.5 -504.5q0 -358 99.5 -656.5t333.5 -482.5t612 -184q246 0 437.5 103.5t315 285t181.5 422.5h290q-69 -301 -222 -537.5t-417 -374t-639 -137.5q-644 0 -956.5 436t-312.5 1117
q0 542 175 889t482 505t715 158q302 0 544.5 -107t396.5 -316t202 -511z" />
    <glyph glyph-name="afii10035" unicode="&#x421;" horiz-adv-x="2957" 
d="M2712 2093h-287q-83 368 -312 532t-618 164q-259 0 -453.5 -102.5t-320 -283t-186 -416t-60.5 -504.5q0 -358 99.5 -656.5t333.5 -482.5t612 -184q246 0 437.5 103.5t315 285t181.5 422.5h290q-69 -301 -222 -537.5t-417 -374t-639 -137.5q-644 0 -956.5 436t-312.5 1117
q0 542 175 889t482 505t715 158q302 0 544.5 -107t396.5 -316t202 -511z" />
    <glyph glyph-name="afii10036" unicode="&#xd2;" 
d="M66 2712v237h2146v-237h-934v-2712h-279v2712h-933z" />
    <glyph glyph-name="afii10036" unicode="&#x422;" 
d="M66 2712v237h2146v-237h-934v-2712h-279v2712h-933z" />
    <glyph glyph-name="afii10037" unicode="&#xd3;" horiz-adv-x="2400" 
d="M2085 2949h307l-1118 -2568q-114 -259 -245.5 -359t-360.5 -100q-99 0 -172 21v233q64 -16 155 -16q132 0 201 47t123 162l57 118l-1016 2462h291l877 -2134z" />
    <glyph glyph-name="afii10037" unicode="&#x423;" horiz-adv-x="2400" 
d="M2085 2949h307l-1118 -2568q-114 -259 -245.5 -359t-360.5 -100q-99 0 -172 21v233q64 -16 155 -16q132 0 201 47t123 162l57 118l-1016 2462h291l877 -2134z" />
    <glyph glyph-name="afii10038" unicode="&#xd4;" horiz-adv-x="3334" 
d="M1524 2953h278v-258h201q339 0 605 -160t412 -436.5t146 -611.5q0 -344 -145.5 -616.5t-411.5 -426t-606 -153.5h-201v-291h-278v291h-201q-340 0 -606 153.5t-411.5 426t-145.5 616.5q0 335 146 611.5t412 436.5t605 160h201v258zM1524 2458h-193q-272 0 -475 -124.5
t-310.5 -344.5t-107.5 -494q0 -203 61 -380t178 -309.5t283.5 -205t370.5 -72.5h193v1930zM1995 2458h-193v-1930h193q205 0 372 73t284 205t177 309t60 380q0 274 -107.5 494t-310.5 344.5t-475 124.5z" />
    <glyph glyph-name="afii10038" unicode="&#x424;" horiz-adv-x="3334" 
d="M1524 2953h278v-258h201q339 0 605 -160t412 -436.5t146 -611.5q0 -344 -145.5 -616.5t-411.5 -426t-606 -153.5h-201v-291h-278v291h-201q-340 0 -606 153.5t-411.5 426t-145.5 616.5q0 335 146 611.5t412 436.5t605 160h201v258zM1524 2458h-193q-272 0 -475 -124.5
t-310.5 -344.5t-107.5 -494q0 -203 61 -380t178 -309.5t283.5 -205t370.5 -72.5h193v1930zM1995 2458h-193v-1930h193q205 0 372 73t284 205t177 309t60 380q0 274 -107.5 494t-310.5 344.5t-475 124.5z" />
    <glyph glyph-name="afii10039" unicode="&#xd5;" horiz-adv-x="2503" 
d="M2105 0l-860 1303l-856 -1303h-315l1016 1516l-975 1433h323l807 -1241l811 1241h324l-967 -1433l1012 -1516h-320z" />
    <glyph glyph-name="afii10039" unicode="&#x425;" horiz-adv-x="2503" 
d="M2105 0l-860 1303l-856 -1303h-315l1016 1516l-975 1433h323l807 -1241l811 1241h324l-967 -1433l1012 -1516h-320z" />
    <glyph glyph-name="afii10040" unicode="&#xd6;" horiz-adv-x="2994" 
d="M606 238h1745v2711h279v-2711h225v-914h-270v676h-2257v2949h278v-2711z" />
    <glyph glyph-name="afii10040" unicode="&#x426;" horiz-adv-x="2994" 
d="M606 238h1745v2711h279v-2711h225v-914h-270v676h-2257v2949h278v-2711z" />
    <glyph glyph-name="afii10041" unicode="&#xd7;" horiz-adv-x="2748" 
d="M2154 2949h279v-2949h-279v1384q-292 -45 -950 -45q-432 0 -664.5 207.5t-232.5 661.5v741h279v-795q0 -341 217 -459t655 -118q298 0 696 53v1319z" />
    <glyph glyph-name="afii10041" unicode="&#x427;" horiz-adv-x="2748" 
d="M2154 2949h279v-2949h-279v1384q-292 -45 -950 -45q-432 0 -664.5 207.5t-232.5 661.5v741h279v-795q0 -341 217 -459t655 -118q298 0 696 53v1319z" />
    <glyph glyph-name="afii10042" unicode="&#xd8;" horiz-adv-x="3891" 
d="M573 238h1229v2711h279v-2711h1229v2711h278v-2949h-3293v2949h278v-2711z" />
    <glyph glyph-name="afii10042" unicode="&#x428;" horiz-adv-x="3891" 
d="M573 238h1229v2711h279v-2711h1229v2711h278v-2949h-3293v2949h278v-2711z" />
    <glyph glyph-name="afii10043" unicode="&#xd9;" horiz-adv-x="3891" 
d="M573 238h1229v2711h279v-2711h1229v2711h278v-2711h225v-914h-270v676h-3248v2949h278v-2711z" />
    <glyph glyph-name="afii10043" unicode="&#x429;" horiz-adv-x="3891" 
d="M573 238h1229v2711h279v-2711h1229v2711h278v-2711h225v-914h-270v676h-3248v2949h278v-2711z" />
    <glyph glyph-name="afii10044" unicode="&#xda;" horiz-adv-x="2765" 
d="M-29 2949h889v-1302h696q1065 0 1065 -824q0 -823 -983 -823h-1056v2712h-611v237zM860 1409v-1171h582q252 0 414 22t270.5 84.5t162.5 180t54 306.5q0 342 -214.5 460t-653.5 118h-615z" />
    <glyph glyph-name="afii10044" unicode="&#x42a;" horiz-adv-x="2765" 
d="M-29 2949h889v-1302h696q1065 0 1065 -824q0 -823 -983 -823h-1056v2712h-611v237zM860 1409v-1171h582q252 0 414 22t270.5 84.5t162.5 180t54 306.5q0 342 -214.5 460t-653.5 118h-615z" />
    <glyph glyph-name="afii10045" unicode="&#xdb;" horiz-adv-x="3539" 
d="M340 2949h278v-1302h697q1065 0 1065 -824q0 -823 -983 -823h-1057v2949zM618 1409v-1171h582q252 0 413.5 22t271.5 84.5t163 180t53 306.5q0 342 -214.5 460t-653.5 118h-615zM3195 0h-279v2949h279v-2949z" />
    <glyph glyph-name="afii10045" unicode="&#x42b;" horiz-adv-x="3539" 
d="M340 2949h278v-1302h697q1065 0 1065 -824q0 -823 -983 -823h-1057v2949zM618 1409v-1171h582q252 0 413.5 22t271.5 84.5t163 180t53 306.5q0 342 -214.5 460t-653.5 118h-615zM3195 0h-279v2949h279v-2949z" />
    <glyph glyph-name="afii10046" unicode="&#xdc;" horiz-adv-x="2503" 
d="M319 2949h279v-1302h696q1065 0 1065 -824q0 -823 -983 -823h-1057v2949zM598 1409v-1171h582q252 0 414 22t270.5 84.5t162.5 180t54 306.5q0 342 -214.5 460t-654.5 118h-614z" />
    <glyph glyph-name="afii10046" unicode="&#x42c;" horiz-adv-x="2503" 
d="M319 2949h279v-1302h696q1065 0 1065 -824q0 -823 -983 -823h-1057v2949zM598 1409v-1171h582q252 0 414 22t270.5 84.5t162.5 180t54 306.5q0 342 -214.5 460t-654.5 118h-614z" />
    <glyph glyph-name="afii10047" unicode="&#xdd;" horiz-adv-x="2957" 
d="M229 2093h287q56 247 178 401.5t308.5 224.5t443.5 70q315 0 536 -151t339 -409t141 -582h-1258v-238h1262q0 -335 -104.5 -617.5t-339.5 -457t-601 -174.5q-246 0 -437.5 103.5t-315 285t-181.5 422.5h-290q69 -301 222 -537.5t417 -374t639 -137.5q330 0 573.5 120.5
t397.5 335.5t226 493.5t72 603.5q0 543 -175 890t-483 504.5t-714 157.5q-302 0 -544.5 -107t-396.5 -316t-202 -511z" />
    <glyph glyph-name="afii10047" unicode="&#x42d;" horiz-adv-x="2957" 
d="M229 2093h287q56 247 178 401.5t308.5 224.5t443.5 70q315 0 536 -151t339 -409t141 -582h-1258v-238h1262q0 -335 -104.5 -617.5t-339.5 -457t-601 -174.5q-246 0 -437.5 103.5t-315 285t-181.5 422.5h-290q69 -301 222 -537.5t417 -374t639 -137.5q330 0 573.5 120.5
t397.5 335.5t226 493.5t72 603.5q0 543 -175 890t-483 504.5t-714 157.5q-302 0 -544.5 -107t-396.5 -316t-202 -511z" />
    <glyph glyph-name="afii10048" unicode="&#xde;" horiz-adv-x="4129" 
d="M631 1647h540q29 394 196 707.5t462.5 493t693.5 179.5q339 0 600.5 -118.5t436 -330.5t263.5 -495t89 -613q0 -321 -88 -601.5t-262.5 -494t-435 -333t-591.5 -119.5q-324 0 -582 114.5t-433 317.5t-266 474.5t-91 580.5h-532v-1409h-279v2949h279v-1302zM2540 160
q364 0 611 178t364.5 475.5t117.5 656.5q0 306 -76 551.5t-220 417t-348 261t-458 89.5q-274 0 -481 -105.5t-342 -290.5t-200.5 -422.5t-65.5 -500.5q0 -361 117 -658.5t365 -474.5t616 -177z" />
    <glyph glyph-name="afii10048" unicode="&#x42e;" horiz-adv-x="4129" 
d="M631 1647h540q29 394 196 707.5t462.5 493t693.5 179.5q339 0 600.5 -118.5t436 -330.5t263.5 -495t89 -613q0 -321 -88 -601.5t-262.5 -494t-435 -333t-591.5 -119.5q-324 0 -582 114.5t-433 317.5t-266 474.5t-91 580.5h-532v-1409h-279v2949h279v-1302zM2540 160
q364 0 611 178t364.5 475.5t117.5 656.5q0 306 -76 551.5t-220 417t-348 261t-458 89.5q-274 0 -481 -105.5t-342 -290.5t-200.5 -422.5t-65.5 -500.5q0 -361 117 -658.5t365 -474.5t616 -177z" />
    <glyph glyph-name="afii10049" unicode="&#xdf;" horiz-adv-x="2519" 
d="M2195 2949v-2949h-278v1303h-729l-823 -1303h-332l852 1327q-729 119 -729 799q0 823 983 823h1056zM1917 1540v1172h-582q-333 0 -522.5 -44t-284 -172.5t-94.5 -377.5q0 -233 103 -360t290.5 -172.5t475.5 -45.5h614z" />
    <glyph glyph-name="afii10049" unicode="&#x42f;" horiz-adv-x="2519" 
d="M2195 2949v-2949h-278v1303h-729l-823 -1303h-332l852 1327q-729 119 -729 799q0 823 983 823h1056zM1917 1540v1172h-582q-333 0 -522.5 -44t-284 -172.5t-94.5 -377.5q0 -233 103 -360t290.5 -172.5t475.5 -45.5h614z" />
    <glyph glyph-name="afii10065" unicode="&#xe0;" 
d="M1683 782v332q-205 -85 -634 -119q-598 -45 -598 -450q0 -183 134.5 -282t323.5 -99q321 0 547.5 158t226.5 460zM930 1192l340 45q209 19 323 70q90 40 90 221q0 200 -127.5 315t-400.5 115t-429 -108t-189 -371h-250q17 239 135 397t307.5 230.5t429.5 72.5
q352 0 561 -156.5t209 -502.5v-1155q0 -105 24 -151t87 -46q51 0 147 33v-193q-126 -41 -192 -41q-58 0 -111 13q-111 16 -151.5 98.5t-44.5 216.5q-315 -352 -791 -352q-300 0 -504.5 159t-204.5 451q0 540 742 639z" />
    <glyph glyph-name="afii10065" unicode="&#x430;" 
d="M1683 782v332q-205 -85 -634 -119q-598 -45 -598 -450q0 -183 134.5 -282t323.5 -99q321 0 547.5 158t226.5 460zM930 1192l340 45q209 19 323 70q90 40 90 221q0 200 -127.5 315t-400.5 115t-429 -108t-189 -371h-250q17 239 135 397t307.5 230.5t429.5 72.5
q352 0 561 -156.5t209 -502.5v-1155q0 -105 24 -151t87 -46q51 0 147 33v-193q-126 -41 -192 -41q-58 0 -111 13q-111 16 -151.5 98.5t-44.5 216.5q-315 -352 -791 -352q-300 0 -504.5 159t-204.5 451q0 540 742 639z" />
    <glyph glyph-name="afii10066" unicode="&#xe1;" horiz-adv-x="2376" 
d="M451 1769q248 410 737 410q311 0 530 -146.5t327.5 -400t108.5 -571.5q0 -251 -69.5 -457t-199 -353.5t-312.5 -227.5t-402 -80q-320 0 -541 153t-331.5 429.5t-110.5 641.5q0 412 63.5 735.5t252 559t540.5 303.5q262 50 401 85t201 74.5t62 102.5h258
q0 -146 -119.5 -238t-276 -136t-415.5 -93q-208 -39 -346 -126t-225.5 -247.5t-132.5 -417.5zM1171 164q245 0 407.5 124.5t238 327.5t75.5 445q0 404 -175 650.5t-546 246.5q-245 0 -407.5 -117.5t-237.5 -313t-75 -437.5q0 -391 190.5 -658.5t529.5 -267.5z" />
    <glyph glyph-name="afii10066" unicode="&#x431;" horiz-adv-x="2376" 
d="M451 1769q248 410 737 410q311 0 530 -146.5t327.5 -400t108.5 -571.5q0 -251 -69.5 -457t-199 -353.5t-312.5 -227.5t-402 -80q-320 0 -541 153t-331.5 429.5t-110.5 641.5q0 412 63.5 735.5t252 559t540.5 303.5q262 50 401 85t201 74.5t62 102.5h258
q0 -146 -119.5 -238t-276 -136t-415.5 -93q-208 -39 -346 -126t-225.5 -247.5t-132.5 -417.5zM1171 164q245 0 407.5 124.5t238 327.5t75.5 445q0 404 -175 650.5t-546 246.5q-245 0 -407.5 -117.5t-237.5 -313t-75 -437.5q0 -391 190.5 -658.5t529.5 -267.5z" />
    <glyph glyph-name="afii10067" unicode="&#xe2;" horiz-adv-x="2089" 
d="M524 1004v-799h684q210 0 332.5 103t122.5 286q0 144 -69.5 236t-186.5 133t-264 41h-619zM524 1917v-709h631q179 0 304.5 90.5t125.5 257.5q0 191 -119 276t-364 85h-578zM1307 0h-1028v2122h987q170 0 299.5 -69.5t197.5 -180t68 -225.5q0 -408 -332 -525
q185 -48 305.5 -183t120.5 -333q0 -193 -85.5 -330t-228 -206.5t-304.5 -69.5z" />
    <glyph glyph-name="afii10067" unicode="&#x432;" horiz-adv-x="2089" 
d="M524 1004v-799h684q210 0 332.5 103t122.5 286q0 144 -69.5 236t-186.5 133t-264 41h-619zM524 1917v-709h631q179 0 304.5 90.5t125.5 257.5q0 191 -119 276t-364 85h-578zM1307 0h-1028v2122h987q170 0 299.5 -69.5t197.5 -180t68 -225.5q0 -408 -332 -525
q185 -48 305.5 -183t120.5 -333q0 -193 -85.5 -330t-228 -206.5t-304.5 -69.5z" />
    <glyph glyph-name="afii10068" unicode="&#xe3;" horiz-adv-x="1659" 
d="M1610 1917h-1065v-1917h-246v2122h1311v-205z" />
    <glyph glyph-name="afii10068" unicode="&#x433;" horiz-adv-x="1659" 
d="M1610 1917h-1065v-1917h-246v2122h1311v-205z" />
    <glyph glyph-name="afii10069" unicode="&#xe4;" horiz-adv-x="2265" 
d="M262 205q107 196 163 409.5t73.5 421t17.5 443.5v643h1405v-1917h213v-758h-242v553h-1577v-553h-241v758h188zM1675 1917h-917v-467q0 -267 -15.5 -458.5t-67.5 -390.5t-151 -396h1151v1712z" />
    <glyph glyph-name="afii10069" unicode="&#x434;" horiz-adv-x="2265" 
d="M262 205q107 196 163 409.5t73.5 421t17.5 443.5v643h1405v-1917h213v-758h-242v553h-1577v-553h-241v758h188zM1675 1917h-917v-467q0 -267 -15.5 -458.5t-67.5 -390.5t-151 -396h1151v1712z" />
    <glyph glyph-name="afii10070" unicode="&#xe5;" 
d="M446 1208h1385q0 210 -77 381t-228.5 270t-366.5 99q-209 0 -360.5 -100.5t-238.5 -270t-114 -379.5zM2093 1004h-1647q0 -230 82 -423t242.5 -305t388.5 -112q244 0 417 128.5t226 358.5h275q-217 -708 -918 -708q-328 0 -547.5 143.5t-323.5 395t-104 571.5
q0 231 67 436.5t195 361t310 242t403 86.5q217 0 391.5 -76.5t295 -225.5t184 -369.5t63.5 -503.5z" />
    <glyph glyph-name="afii10070" unicode="&#x435;" 
d="M446 1208h1385q0 210 -77 381t-228.5 270t-366.5 99q-209 0 -360.5 -100.5t-238.5 -270t-114 -379.5zM2093 1004h-1647q0 -230 82 -423t242.5 -305t388.5 -112q244 0 417 128.5t226 358.5h275q-217 -708 -918 -708q-328 0 -547.5 143.5t-323.5 395t-104 571.5
q0 231 67 436.5t195 361t310 242t403 86.5q217 0 391.5 -76.5t295 -225.5t184 -369.5t63.5 -503.5z" />
    <glyph glyph-name="afii10072" unicode="&#xe6;" horiz-adv-x="3006" 
d="M1380 0h246v778l328 336l749 -1114h279l-848 1286l762 836h-320l-950 -1049v1049h-246v-1049l-950 1049h-319l761 -836l-847 -1286h278l750 1114l327 -336v-778z" />
    <glyph glyph-name="afii10072" unicode="&#x436;" horiz-adv-x="3006" 
d="M1380 0h246v778l328 336l749 -1114h279l-848 1286l762 836h-320l-950 -1049v1049h-246v-1049l-950 1049h-319l761 -836l-847 -1286h278l750 1114l327 -336v-778z" />
    <glyph glyph-name="afii10073" unicode="&#xe7;" horiz-adv-x="2003" 
d="M815 1028v205h266q96 0 192 51t155 137t59 185q0 356 -541 356q-236 0 -364.5 -105t-184.5 -337h-237q16 194 123 345.5t279 234.5t376 83q260 0 440.5 -77t267.5 -203.5t87 -272.5q0 -192 -117 -324.5t-285 -162.5q206 -49 342.5 -202.5t136.5 -375.5
q0 -299 -223.5 -458.5t-623.5 -159.5q-388 0 -614.5 189.5t-258.5 531.5h242q26 -239 192 -369.5t451 -130.5q173 0 304 49.5t200 138.5t69 205q0 231 -146 349t-370 118h-217z" />
    <glyph glyph-name="afii10073" unicode="&#x437;" horiz-adv-x="2003" 
d="M815 1028v205h266q96 0 192 51t155 137t59 185q0 356 -541 356q-236 0 -364.5 -105t-184.5 -337h-237q16 194 123 345.5t279 234.5t376 83q260 0 440.5 -77t267.5 -203.5t87 -272.5q0 -192 -117 -324.5t-285 -162.5q206 -49 342.5 -202.5t136.5 -375.5
q0 -299 -223.5 -458.5t-623.5 -159.5q-388 0 -614.5 189.5t-258.5 531.5h242q26 -239 192 -369.5t451 -130.5q173 0 304 49.5t200 138.5t69 205q0 231 -146 349t-370 118h-217z" />
    <glyph glyph-name="afii10074" unicode="&#xe8;" horiz-adv-x="2331" 
d="M1749 2122h270v-2122h-245v1794l-1209 -1794h-274v2122h246v-1794z" />
    <glyph glyph-name="afii10074" unicode="&#x438;" horiz-adv-x="2331" 
d="M1749 2122h270v-2122h-245v1794l-1209 -1794h-274v2122h246v-1794z" />
    <glyph glyph-name="afii10075" unicode="&#xe9;" horiz-adv-x="2339" 
d="M1757 2122h271v-2122h-246v1794l-1209 -1794h-274v2122h246v-1794zM573 2855h160q66 -332 430 -332q355 0 439 332h151q-26 -252 -189 -384t-421 -132q-245 0 -398 136.5t-172 379.5z" />
    <glyph glyph-name="afii10075" unicode="&#x439;" horiz-adv-x="2339" 
d="M1757 2122h271v-2122h-246v1794l-1209 -1794h-274v2122h246v-1794zM573 2855h160q66 -332 430 -332q355 0 439 332h151q-26 -252 -189 -384t-421 -132q-245 0 -398 136.5t-172 379.5z" />
    <glyph glyph-name="afii10076" unicode="&#xea;" horiz-adv-x="2048" 
d="M524 0h-245v2122h245v-1008l1041 1008h336l-795 -766l889 -1356h-275l-794 1184l-402 -381v-803z" />
    <glyph glyph-name="afii10076" unicode="&#x43a;" horiz-adv-x="2048" 
d="M524 0h-245v2122h245v-1008l1041 1008h336l-795 -766l889 -1356h-275l-794 1184l-402 -381v-803z" />
    <glyph glyph-name="afii10077" unicode="&#xeb;" horiz-adv-x="2265" 
d="M455 2122h1470v-2122h-246v1917h-979v-397q0 -570 -41 -906q-36 -319 -146 -474.5t-304 -155.5q-106 0 -180 28v201q65 -16 147 -16q98 0 176 139q31 52 50 159.5t31.5 318.5t17 499t4.5 809z" />
    <glyph glyph-name="afii10077" unicode="&#x43b;" horiz-adv-x="2265" 
d="M455 2122h1470v-2122h-246v1917h-979v-397q0 -570 -41 -906q-36 -319 -146 -474.5t-304 -155.5q-106 0 -180 28v201q65 -16 147 -16q98 0 176 139q31 52 50 159.5t31.5 318.5t17 499t4.5 809z" />
    <glyph glyph-name="afii10078" unicode="&#xec;" horiz-adv-x="2634" 
d="M520 1737l676 -1737h225l676 1737v-1737h246v2122h-320l-712 -1843l-717 1843h-320v-2122h246v1737z" />
    <glyph glyph-name="afii10078" unicode="&#x43c;" horiz-adv-x="2634" 
d="M520 1737l676 -1737h225l676 1737v-1737h246v2122h-320l-712 -1843l-717 1843h-320v-2122h246v1737z" />
    <glyph glyph-name="afii10079" unicode="&#xed;" horiz-adv-x="2286" 
d="M1978 2122v-2122h-245v1028h-1180v-1028h-246v2122h246v-889h1180v889h245z" />
    <glyph glyph-name="afii10079" unicode="&#x43d;" horiz-adv-x="2286" 
d="M1978 2122v-2122h-245v1028h-1180v-1028h-246v2122h246v-889h1180v889h245z" />
    <glyph glyph-name="afii10080" unicode="&#xee;" 
d="M1139 -57q-276 0 -499.5 127t-353.5 381t-130 610q0 314 111 568.5t334 402t538 147.5q318 0 541 -146.5t332.5 -399.5t109.5 -572q0 -251 -69.5 -457t-199 -353.5t-312.5 -227.5t-402 -80zM1860 1061q0 404 -175.5 650.5t-545.5 246.5q-245 0 -407.5 -124t-238 -328.5
t-75.5 -444.5q0 -266 82.5 -469t246.5 -315.5t392 -112.5q243 0 406.5 124.5t239 329t75.5 443.5z" />
    <glyph glyph-name="afii10080" unicode="&#x43e;" 
d="M1139 -57q-276 0 -499.5 127t-353.5 381t-130 610q0 314 111 568.5t334 402t538 147.5q318 0 541 -146.5t332.5 -399.5t109.5 -572q0 -251 -69.5 -457t-199 -353.5t-312.5 -227.5t-402 -80zM1860 1061q0 404 -175.5 650.5t-545.5 246.5q-245 0 -407.5 -124t-238 -328.5
t-75.5 -444.5q0 -266 82.5 -469t246.5 -315.5t392 -112.5q243 0 406.5 124.5t239 329t75.5 443.5z" />
    <glyph glyph-name="afii10081" unicode="&#xef;" horiz-adv-x="2281" 
d="M1966 2122v-2122h-246v1917h-1179v-1917h-246v2122h1671z" />
    <glyph glyph-name="afii10081" unicode="&#x43f;" horiz-adv-x="2281" 
d="M1966 2122v-2122h-246v1917h-1179v-1917h-246v2122h1671z" />
    <glyph glyph-name="afii10082" unicode="&#xf0;" horiz-adv-x="2503" 
d="M569 1053q0 -241 87 -445t250.5 -324t379.5 -120q243 0 406.5 127t241 345t77.5 490q0 261 -93.5 449t-258.5 285.5t-373 97.5q-225 0 -387 -117.5t-246 -323.5t-84 -464zM569 340v-1176h-245v2958h245v-373h9q66 131 188.5 230.5t267 149.5t281.5 50q252 0 434 -83
t299 -235t171 -353t54 -443q0 -306 -104.5 -562t-318 -408t-523.5 -152q-151 0 -295.5 45.5t-266 136.5t-196.5 215z" />
    <glyph glyph-name="afii10082" unicode="&#x440;" horiz-adv-x="2503" 
d="M569 1053q0 -241 87 -445t250.5 -324t379.5 -120q243 0 406.5 127t241 345t77.5 490q0 261 -93.5 449t-258.5 285.5t-373 97.5q-225 0 -387 -117.5t-246 -323.5t-84 -464zM569 340v-1176h-245v2958h245v-373h9q66 131 188.5 230.5t267 149.5t281.5 50q252 0 434 -83
t299 -235t171 -353t54 -443q0 -306 -104.5 -562t-318 -408t-523.5 -152q-151 0 -295.5 45.5t-266 136.5t-196.5 215z" />
    <glyph glyph-name="afii10083" unicode="&#xf1;" 
d="M2048 1454h-250q-65 241 -226.5 372.5t-404.5 131.5q-237 0 -398.5 -128t-237.5 -334t-76 -439q0 -373 178 -633t534 -260q270 0 439 151t213 418h262q-67 -368 -297.5 -579t-616.5 -211q-245 0 -431 84t-306 235t-178.5 354.5t-58.5 440.5q0 226 64 428t188 358.5
t307.5 246t414.5 89.5q244 0 429.5 -79t300 -240.5t151.5 -405.5z" />
    <glyph glyph-name="afii10083" unicode="&#x441;" 
d="M2048 1454h-250q-65 241 -226.5 372.5t-404.5 131.5q-237 0 -398.5 -128t-237.5 -334t-76 -439q0 -373 178 -633t534 -260q270 0 439 151t213 418h262q-67 -368 -297.5 -579t-616.5 -211q-245 0 -431 84t-306 235t-178.5 354.5t-58.5 440.5q0 226 64 428t188 358.5
t307.5 246t414.5 89.5q244 0 429.5 -79t300 -240.5t151.5 -405.5z" />
    <glyph glyph-name="afii10084" unicode="&#xf2;" horiz-adv-x="1769" 
d="M1712 2122v-205h-713v-1917h-245v1917h-705v205h1663z" />
    <glyph glyph-name="afii10084" unicode="&#x442;" horiz-adv-x="1769" 
d="M1712 2122v-205h-713v-1917h-245v1917h-705v205h1663z" />
    <glyph glyph-name="afii10085" unicode="&#xf3;" horiz-adv-x="2048" 
d="M279 -807v229q130 -24 204 -24q125 0 197.5 94t135.5 275t81 217l-823 2138h274l680 -1823l680 1823h266l-790 -2093q-124 -329 -205 -497.5t-193.5 -268t-273.5 -99.5q-115 0 -233 29z" />
    <glyph glyph-name="afii10085" unicode="&#x443;" horiz-adv-x="2048" 
d="M279 -807v229q130 -24 204 -24q125 0 197.5 94t135.5 275t81 217l-823 2138h274l680 -1823l680 1823h266l-790 -2093q-124 -329 -205 -497.5t-193.5 -268t-273.5 -99.5q-115 0 -233 29z" />
    <glyph glyph-name="afii10086" unicode="&#xf4;" horiz-adv-x="3510" 
d="M1032 160q297 0 449.5 263.5t152.5 641.5q0 239 -72 443t-208.5 325t-321.5 121q-197 0 -331.5 -127.5t-200.5 -331.5t-66 -430q0 -245 62.5 -450.5t197.5 -330t338 -124.5zM1634 3023h246v-1225q93 162 263 269.5t376 107.5q203 0 358 -88t258 -242t155 -357t52 -431
q0 -316 -87.5 -569.5t-273 -401t-462.5 -147.5q-434 0 -639 364v-1143h-246v1151q-209 -372 -639 -372q-209 0 -366 87t-258.5 243t-150 360t-48.5 436q0 305 92 557t277.5 402.5t453.5 150.5q209 0 379 -104.5t260 -264.5v1217zM2482 160q203 0 338 124.5t197.5 330
t62.5 450.5q0 226 -66 430t-200.5 331.5t-331.5 127.5q-185 0 -321.5 -121t-208.5 -325t-72 -443q0 -378 153 -641.5t449 -263.5z" />
    <glyph glyph-name="afii10086" unicode="&#x444;" horiz-adv-x="3510" 
d="M1032 160q297 0 449.5 263.5t152.5 641.5q0 239 -72 443t-208.5 325t-321.5 121q-197 0 -331.5 -127.5t-200.5 -331.5t-66 -430q0 -245 62.5 -450.5t197.5 -330t338 -124.5zM1634 3023h246v-1225q93 162 263 269.5t376 107.5q203 0 358 -88t258 -242t155 -357t52 -431
q0 -316 -87.5 -569.5t-273 -401t-462.5 -147.5q-434 0 -639 364v-1143h-246v1151q-209 -372 -639 -372q-209 0 -366 87t-258.5 243t-150 360t-48.5 436q0 305 92 557t277.5 402.5t453.5 150.5q209 0 379 -104.5t260 -264.5v1217zM2482 160q203 0 338 124.5t197.5 330
t62.5 450.5q0 226 -66 430t-200.5 331.5t-331.5 127.5q-185 0 -321.5 -121t-208.5 -325t-72 -443q0 -378 153 -641.5t449 -263.5z" />
    <glyph glyph-name="afii10087" unicode="&#xf5;" horiz-adv-x="2048" 
d="M1675 0l-643 918l-659 -918h-299l815 1098l-750 1024h303l586 -844l602 844h312l-766 -1024l794 -1098h-295z" />
    <glyph glyph-name="afii10087" unicode="&#x445;" horiz-adv-x="2048" 
d="M1675 0l-643 918l-659 -918h-299l815 1098l-750 1024h303l586 -844l602 844h312l-766 -1024l794 -1098h-295z" />
    <glyph glyph-name="afii10088" unicode="&#xf6;" horiz-adv-x="2286" 
d="M532 205h1180v1917h246v-1917h213v-762h-242v557h-1642v2122h245v-1917z" />
    <glyph glyph-name="afii10088" unicode="&#x446;" horiz-adv-x="2286" 
d="M532 205h1180v1917h246v-1917h213v-762h-242v557h-1642v2122h245v-1917z" />
    <glyph glyph-name="afii10089" unicode="&#xf7;" horiz-adv-x="2195" 
d="M1622 1212v910h246v-2122h-246v1004q-248 -78 -655 -78q-282 0 -475 170t-193 473v553h246v-582q0 -185 126.5 -289t340.5 -104q293 0 405 14.5t205 50.5z" />
    <glyph glyph-name="afii10089" unicode="&#x447;" horiz-adv-x="2195" 
d="M1622 1212v910h246v-2122h-246v1004q-248 -78 -655 -78q-282 0 -475 170t-193 473v553h246v-582q0 -185 126.5 -289t340.5 -104q293 0 405 14.5t205 50.5z" />
    <glyph glyph-name="afii10090" unicode="&#xf8;" horiz-adv-x="3494" 
d="M2933 205v1917h245v-2122h-2883v2122h246v-1917h1073v1917h246v-1917h1073z" />
    <glyph glyph-name="afii10090" unicode="&#x448;" horiz-adv-x="3494" 
d="M2933 205v1917h245v-2122h-2883v2122h246v-1917h1073v1917h246v-1917h1073z" />
    <glyph glyph-name="afii10091" unicode="&#xf9;" horiz-adv-x="3506" 
d="M2933 205v1917h245v-1917h213v-762h-241v557h-2855v2122h246v-1917h1073v1917h246v-1917h1073z" />
    <glyph glyph-name="afii10091" unicode="&#x449;" horiz-adv-x="3506" 
d="M2933 205v1917h245v-1917h213v-762h-241v557h-2855v2122h246v-1917h1073v1917h246v-1917h1073z" />
    <glyph glyph-name="afii10092" unicode="&#xfa;" horiz-adv-x="2183" 
d="M651 1233h623q339 0 538 -172.5t199 -450.5q0 -364 -232.5 -487t-471.5 -123h-901v1917h-451v205h696v-889zM651 1028v-823h553q271 0 408 105.5t137 299.5q0 193 -138.5 305.5t-353.5 112.5h-606z" />
    <glyph glyph-name="afii10092" unicode="&#x44a;" horiz-adv-x="2183" 
d="M651 1233h623q339 0 538 -172.5t199 -450.5q0 -364 -232.5 -487t-471.5 -123h-901v1917h-451v205h696v-889zM651 1028v-823h553q271 0 408 105.5t137 299.5q0 193 -138.5 305.5t-353.5 112.5h-606z" />
    <glyph glyph-name="afii10093" unicode="&#xfb;" horiz-adv-x="2875" 
d="M545 1233h622q223 0 390.5 -75t257.5 -212.5t90 -318.5q0 -255 -128.5 -395.5t-289 -186t-287.5 -45.5h-901v2122h246v-889zM545 1028v-823h553q270 0 407 109t137 304q0 192 -136.5 301t-350.5 109h-610zM2580 0h-245v2122h245v-2122z" />
    <glyph glyph-name="afii10093" unicode="&#x44b;" horiz-adv-x="2875" 
d="M545 1233h622q223 0 390.5 -75t257.5 -212.5t90 -318.5q0 -255 -128.5 -395.5t-289 -186t-287.5 -45.5h-901v2122h246v-889zM545 1028v-823h553q270 0 407 109t137 304q0 192 -136.5 301t-350.5 109h-610zM2580 0h-245v2122h245v-2122z" />
    <glyph glyph-name="afii10094" unicode="&#xfc;" horiz-adv-x="2073" 
d="M541 1233h614q225 0 394 -79t260.5 -220.5t91.5 -323.5q0 -256 -128.5 -391.5t-286 -177t-290.5 -41.5h-901v2122h246v-889zM541 1028v-823h553q270 0 407 109t137 304q0 128 -63 221.5t-172.5 141t-247.5 47.5h-614z" />
    <glyph glyph-name="afii10094" unicode="&#x44c;" horiz-adv-x="2073" 
d="M541 1233h614q225 0 394 -79t260.5 -220.5t91.5 -323.5q0 -256 -128.5 -391.5t-286 -177t-290.5 -41.5h-901v2122h246v-889zM541 1028v-823h553q270 0 407 109t137 304q0 128 -63 221.5t-172.5 141t-247.5 47.5h-614z" />
    <glyph glyph-name="afii10095" unicode="&#xfd;" 
d="M221 1454h250q65 241 226.5 372.5t404.5 131.5q212 0 366 -103t237.5 -274t100.5 -373h-835v-204h844q-10 -231 -88 -419.5t-235.5 -304.5t-389.5 -116q-270 0 -438.5 150.5t-212.5 418.5h-263q67 -368 298 -579t616 -211q246 0 433 84.5t305.5 233.5t177.5 354t59 442
q0 226 -64 428t-188 359t-308 246t-415 89q-359 0 -590 -196t-291 -529z" />
    <glyph glyph-name="afii10095" unicode="&#x44d;" 
d="M221 1454h250q65 241 226.5 372.5t404.5 131.5q212 0 366 -103t237.5 -274t100.5 -373h-835v-204h844q-10 -231 -88 -419.5t-235.5 -304.5t-389.5 -116q-270 0 -438.5 150.5t-212.5 418.5h-263q67 -368 298 -579t616 -211q246 0 433 84.5t305.5 233.5t177.5 354t59 442
q0 226 -64 428t-188 359t-308 246t-415 89q-359 0 -590 -196t-291 -529z" />
    <glyph glyph-name="afii10096" unicode="&#xfe;" horiz-adv-x="3142" 
d="M537 1208h442q25 280 143 500t330.5 345.5t501.5 125.5q318 0 541 -146.5t332.5 -399.5t109.5 -572q0 -251 -69.5 -457t-199 -353.5t-312.5 -227.5t-402 -80q-269 0 -494 122t-357 362t-132 577h-434v-1004h-246v2122h246v-914zM2675 1061q0 404 -175.5 650.5
t-545.5 246.5q-245 0 -407.5 -124t-238 -328.5t-75.5 -444.5q0 -266 82.5 -469t246.5 -315.5t392 -112.5q243 0 406.5 124.5t239 329t75.5 443.5z" />
    <glyph glyph-name="afii10096" unicode="&#x44e;" horiz-adv-x="3142" 
d="M537 1208h442q25 280 143 500t330.5 345.5t501.5 125.5q318 0 541 -146.5t332.5 -399.5t109.5 -572q0 -251 -69.5 -457t-199 -353.5t-312.5 -227.5t-402 -80q-269 0 -494 122t-357 362t-132 577h-434v-1004h-246v2122h246v-914zM2675 1061q0 404 -175.5 650.5
t-545.5 246.5q-245 0 -407.5 -124t-238 -328.5t-75.5 -444.5q0 -266 82.5 -469t246.5 -315.5t392 -112.5q243 0 406.5 124.5t239 329t75.5 443.5z" />
    <glyph glyph-name="afii10097" unicode="&#xff;" horiz-adv-x="2114" 
d="M1516 905h-586l-512 -905h-275l537 926q-524 128 -524 585q0 365 232.5 488t471.5 123h901v-2122h-245v905zM1516 1110v807h-553q-272 0 -408.5 -105.5t-136.5 -300.5q0 -190 137.5 -295.5t353.5 -105.5h607z" />
    <glyph glyph-name="afii10097" unicode="&#x44f;" horiz-adv-x="2114" 
d="M1516 905h-586l-512 -905h-275l537 926q-524 128 -524 585q0 365 232.5 488t471.5 123h901v-2122h-245v905zM1516 1110v807h-553q-272 0 -408.5 -105.5t-136.5 -300.5q0 -190 137.5 -295.5t353.5 -105.5h607z" />
    </font>
</defs>
</svg>
